#N canvas 234 189 830 358 10;
#X obj 263 331 makenote 64 250;
#X obj 263 355 noteout 1;
#N canvas 0 22 450 278 (subpatch) 0;
#X array pattern1 16 float 1;
#A 0 60 0 60 0 60 0 60 0 60 60 66 71 64 62 63 70;
#X coords 0 72 15 0 200 140 1 0 0;
#X restore 15 19 graph;
#X msg 225 20 \; pattern1 0 60 60 62 60 66 66 64 66 60 60 66 71 64
62 63 70 \;;
#X obj 263 206 cup;
#X obj 263 229 % 16;
#X obj 263 160 tgl 15 0 empty empty empty 17 7 0 10 -262144 -1 -1 1
1;
#X msg 234 160 0;
#X obj 263 252 tabread pattern1;
#X obj 289 288 - 24;
#X obj 263 181 metro 125;
#X obj 295 55 netreceive 3000;
#X floatatom 401 114 0 0 0 0 - - -;
#X obj 286 139 print tcp;
#X msg 546 239 \; pattern1 0 60 0 60 0 60 0 60 0 \;;
#X msg 444 158 set;
#X msg 480 165 addsemi;
#X msg 563 174 add pattern1 0 \$1 \$2 \$3 \$4 \$5 \$6 \$7 \$8;
#X obj 277 102 t b b l b b;
#X connect 0 0 1 0;
#X connect 0 1 1 1;
#X connect 4 0 5 0;
#X connect 5 0 8 0;
#X connect 6 0 10 0;
#X connect 7 0 4 0;
#X connect 8 0 9 0;
#X connect 9 0 0 0;
#X connect 10 0 4 0;
#X connect 11 0 17 0;
#X connect 11 0 18 0;
#X connect 11 1 12 0;
#X connect 15 0 14 0;
#X connect 16 0 14 0;
#X connect 17 0 14 0;
#X connect 18 0 7 0;
#X connect 18 1 13 0;
#X connect 18 1 14 0;
#X connect 18 2 17 0;
#X connect 18 3 16 0;
#X connect 18 4 15 0;
