#N canvas 13 136 959 615 10;
#X obj 289 299 cup;
#X obj 289 322 % 16;
#X obj 289 252 tgl 15 0 empty empty empty 17 7 0 10 -262144 -1 -1 0
1;
#X msg 310 251 0;
#X obj 289 274 metro 125;
#X msg 244 123 1;
#X msg 287 123 0;
#X obj 244 70 inlet;
#X obj 415 127 outlet;
#X text 281 69 input of SuperSonic data;
#X text 460 127 outputs the table-data;
#X obj 289 346 outlet;
#X text 336 347 outputs the sequencer number for reading the tableval
;
#X obj 244 98 route start stop reset length;
#X connect 0 0 1 0;
#X connect 1 0 11 0;
#X connect 2 0 4 0;
#X connect 3 0 0 0;
#X connect 4 0 0 0;
#X connect 5 0 2 0;
#X connect 6 0 2 0;
#X connect 7 0 13 0;
#X connect 13 0 5 0;
#X connect 13 1 6 0;
#X connect 13 2 3 0;
#X connect 13 3 1 1;
#X connect 13 4 8 0;
