#N canvas 544 27 959 615 10;
#X obj 93 403 makenote 64 250;
#X obj 93 427 noteout 1;
#N canvas 0 22 450 278 (subpatch) 0;
#X array pattern1 16 float 1;
#A 0 60 0 0 0 60 0 0 0 63 0 85 0 65 73 0 63;
#X coords 0 72 15 0 200 140 1 0 0;
#X restore 15 19 graph;
#X msg 222 19 \; pattern1 0 60 60 62 60 66 66 64 66 60 60 66 71 64
62 63 70 \;;
#X obj 289 303 cup;
#X obj 289 326 % 16;
#X obj 289 256 tgl 15 0 empty empty empty 17 7 0 10 -262144 -1 -1 0
1;
#X msg 330 256 0;
#X obj 289 349 tabread pattern1;
#X obj 289 278 metro 125;
#X obj 504 61 netreceive 3000;
#X floatatom 591 87 0 0 0 0 - - -;
#X msg 388 257 \; pattern1 0 60 0 0 0 60 0 0 0 63 0 85 0 65 73 0 63
\;;
#X msg 436 161 set;
#X msg 420 186 addsemi;
#X obj 373 136 t b b l b b;
#X msg 404 212 add pattern1 0 \$1 \$2 \$3 \$4 \$5 \$6 \$7 \$8 \$9 \$10
\$11 \$12 \$13 \$14 \$15 \$16;
#X obj 524 576 mtof~;
#X obj 524 651 osc~;
#X obj 524 689 *~;
#X obj 656 668 line~;
#X obj 432 537 hsl 128 15 0 127 0 0 empty empty empty -2 -8 0 10 -262144
-1 -1 0 1;
#X msg 706 592 1;
#X obj 706 617 t b 1;
#X obj 524 610 +~;
#X obj 597 559 osc~;
#X obj 597 585 *~;
#X floatatom 633 559 5 0 0 0 - - -;
#X floatatom 597 534 5 0 0 0 - - -;
#X msg 597 510 12;
#X obj 620 475 loadbang;
#X msg 633 534 8;
#X msg 656 643 0 500;
#N canvas 286 180 716 486 myoutput 0;
#X obj 46 108 hsl 42 23 0.01 1 1 0 \$0-v \$0-v volume 7 13 1 9 -245500
-13381 -1 3100 0;
#X obj 90 108 tgl 18 0 THIS_IS_HERE_TO_GET_RID_OF_THE_OUTLET \$0-dsp-toggle
dsp 2 9 1 9 -225271 -195568 -33289 1 1;
#N canvas 216 221 482 356 dsp 0;
#X obj 11 7 inlet;
#X obj 92 226 select 0 1;
#X msg 125 248 6;
#X obj 92 57 route dsp;
#X obj 92 36 receive pd;
#X obj 206 138 loadbang;
#X msg 11 220 dsp \$1;
#X obj 11 245 send pd;
#X msg 206 278 set \$1;
#X obj 206 174 value GLOBAL_PDDP_DSP;
#X msg 109 278 color \$1 20 12;
#X obj 180 309 send \$0-dsp-toggle;
#X obj 92 115 change;
#X msg 92 247 0;
#X connect 0 0 6 0;
#X connect 0 0 12 0;
#X connect 1 0 13 0;
#X connect 1 1 2 0;
#X connect 2 0 10 0;
#X connect 3 0 12 0;
#X connect 4 0 3 0;
#X connect 5 0 9 0;
#X connect 6 0 7 0;
#X connect 8 0 11 0;
#X connect 9 0 8 0;
#X connect 9 0 1 0;
#X connect 10 0 11 0;
#X connect 12 0 8 0;
#X connect 12 0 1 0;
#X connect 12 0 9 0;
#X connect 13 0 10 0;
#X restore 115 160 pd dsp logic;
#X obj 234 14 inlet~;
#X obj 119 285 line~;
#X obj 219 345 *~;
#X obj 239 375 dac~;
#X text 246 34 audio in;
#X obj 296 14 inlet~;
#X obj 281 344 *~;
#X obj 234 85 hip~ 3;
#X obj 296 85 hip~ 3;
#X obj 45 300 send pd;
#X msg 45 279 dsp 1;
#X obj 119 264 pack 0 50;
#X text 186 263 <-- make a ramp to avoid clicks or zipper noise;
#X msg 119 229 0;
#X obj 119 206 moses 0.011;
#X text 340 86 filter out DC;
#X obj 24 60 inlet;
#X connect 0 0 13 0;
#X connect 0 0 17 0;
#X connect 1 0 2 0;
#X connect 3 0 10 0;
#X connect 4 0 9 0;
#X connect 4 0 5 0;
#X connect 5 0 6 0;
#X connect 8 0 11 0;
#X connect 9 0 6 1;
#X connect 10 0 5 1;
#X connect 11 0 9 1;
#X connect 13 0 12 0;
#X connect 14 0 4 0;
#X connect 16 0 14 0;
#X connect 17 0 16 0;
#X connect 17 1 14 0;
#X connect 19 0 0 0;
#X connect 19 0 1 0;
#X connect 19 0 13 0;
#X connect 19 0 17 0;
#X restore 486 798 pd myoutput;
#X obj 434 719 loadbang;
#X msg 450 760 0.8;
#X text 92 335 MIDI;
#X text 725 523 native (sketch);
#X obj 504 87 s rawmessage;
#X obj 640 63 r rawmessage;
#X obj 640 87 print rawmessage;
#X obj 244 71 r rawmessage;
#X obj 244 98 route start stop reset;
#X msg 244 123 1;
#X msg 287 123 0;
#X connect 0 0 1 0;
#X connect 0 1 1 1;
#X connect 4 0 5 0;
#X connect 5 0 8 0;
#X connect 6 0 9 0;
#X connect 7 0 4 0;
#X connect 8 0 0 0;
#X connect 8 0 21 0;
#X connect 8 0 22 0;
#X connect 9 0 4 0;
#X connect 10 0 38 0;
#X connect 10 1 11 0;
#X connect 13 0 12 0;
#X connect 14 0 12 0;
#X connect 15 1 12 0;
#X connect 15 2 16 0;
#X connect 15 3 14 0;
#X connect 15 4 13 0;
#X connect 16 0 12 0;
#X connect 17 0 24 0;
#X connect 18 0 19 0;
#X connect 19 0 33 1;
#X connect 19 0 33 2;
#X connect 20 0 19 1;
#X connect 21 0 17 0;
#X connect 22 0 23 0;
#X connect 23 0 32 0;
#X connect 23 1 20 0;
#X connect 24 0 18 0;
#X connect 25 0 26 0;
#X connect 26 0 24 1;
#X connect 27 0 26 1;
#X connect 28 0 25 0;
#X connect 29 0 28 0;
#X connect 30 0 29 0;
#X connect 30 0 31 0;
#X connect 31 0 27 0;
#X connect 32 0 20 0;
#X connect 34 0 35 0;
#X connect 35 0 33 0;
#X connect 39 0 40 0;
#X connect 41 0 42 0;
#X connect 42 0 43 0;
#X connect 42 1 44 0;
#X connect 42 2 7 0;
#X connect 42 3 15 0;
#X connect 43 0 6 0;
#X connect 44 0 6 0;
