#N canvas 28 237 554 393 10;
#X obj 160 103 mtof~;
#X obj 160 178 osc~;
#X obj 160 216 *~;
#X obj 292 195 line~;
#X obj 68 64 hsl 128 15 0 127 0 0 empty empty empty -2 -8 0 10 -262144
-1 -1 9100 1;
#X msg 342 119 1;
#X obj 342 144 t b 1;
#X obj 160 137 +~;
#X obj 233 86 osc~;
#X obj 233 112 *~;
#X floatatom 269 86 5 0 0 0 - - -;
#X floatatom 233 61 5 0 0 0 - - -;
#X msg 233 37 12;
#X obj 256 2 loadbang;
#X msg 269 61 8;
#X msg 292 170 0 500;
#X obj 88 24 notein;
#N canvas 286 180 716 486 myoutput 1;
#X obj 46 108 hsl 42 23 0.01 1 1 0 \$0-v \$0-v volume 7 13 1 9 -245500
-13381 -1 4100 0;
#X obj 90 108 tgl 18 0 THIS_IS_HERE_TO_GET_RID_OF_THE_OUTLET \$0-dsp-toggle
dsp 2 9 1 9 -225271 -195568 -33289 1 1;
#N canvas 366 514 482 356 dsp 0;
#X obj 11 7 inlet;
#X obj 92 226 select 0 1;
#X msg 125 248 6;
#X obj 92 57 route dsp;
#X obj 92 36 receive pd;
#X obj 206 138 loadbang;
#X msg 11 220 dsp \$1;
#X obj 11 245 send pd;
#X msg 206 278 set \$1;
#X obj 206 174 value GLOBAL_PDDP_DSP;
#X msg 109 278 color \$1 20 12;
#X obj 180 309 send \$0-dsp-toggle;
#X obj 92 115 change;
#X msg 92 247 0;
#X connect 0 0 6 0;
#X connect 0 0 12 0;
#X connect 1 0 13 0;
#X connect 1 1 2 0;
#X connect 2 0 10 0;
#X connect 3 0 12 0;
#X connect 4 0 3 0;
#X connect 5 0 9 0;
#X connect 6 0 7 0;
#X connect 8 0 11 0;
#X connect 9 0 8 0;
#X connect 9 0 1 0;
#X connect 10 0 11 0;
#X connect 12 0 8 0;
#X connect 12 0 1 0;
#X connect 12 0 9 0;
#X connect 13 0 10 0;
#X restore 115 160 pd dsp logic;
#X obj 234 14 inlet~;
#X obj 119 285 line~;
#X obj 219 345 *~;
#X obj 239 375 dac~;
#X text 246 34 audio in;
#X obj 296 14 inlet~;
#X obj 281 344 *~;
#X obj 234 85 hip~ 3;
#X obj 296 85 hip~ 3;
#X obj 45 300 send pd;
#X msg 45 279 dsp 1;
#X obj 119 264 pack 0 50;
#X text 186 263 <-- make a ramp to avoid clicks or zipper noise;
#X msg 119 229 0;
#X obj 119 206 moses 0.011;
#X text 340 86 filter out DC;
#X obj 24 60 inlet;
#X connect 0 0 13 0;
#X connect 0 0 17 0;
#X connect 1 0 2 0;
#X connect 3 0 10 0;
#X connect 4 0 9 0;
#X connect 4 0 5 0;
#X connect 5 0 6 0;
#X connect 8 0 11 0;
#X connect 9 0 6 1;
#X connect 10 0 5 1;
#X connect 11 0 9 1;
#X connect 13 0 12 0;
#X connect 14 0 4 0;
#X connect 16 0 14 0;
#X connect 17 0 16 0;
#X connect 17 1 14 0;
#X connect 19 0 0 0;
#X connect 19 0 1 0;
#X connect 19 0 13 0;
#X connect 19 0 17 0;
#X restore 122 325 pd myoutput;
#X obj 70 246 loadbang;
#X msg 86 287 0.8;
#X connect 0 0 7 0;
#X connect 1 0 2 0;
#X connect 2 0 17 1;
#X connect 2 0 17 2;
#X connect 3 0 2 1;
#X connect 4 0 0 0;
#X connect 5 0 6 0;
#X connect 6 0 15 0;
#X connect 6 1 3 0;
#X connect 7 0 1 0;
#X connect 8 0 9 0;
#X connect 9 0 7 1;
#X connect 10 0 9 1;
#X connect 11 0 8 0;
#X connect 12 0 11 0;
#X connect 13 0 12 0;
#X connect 13 0 14 0;
#X connect 14 0 10 0;
#X connect 15 0 3 0;
#X connect 16 0 4 0;
#X connect 16 1 5 0;
#X connect 18 0 19 0;
#X connect 19 0 17 0;
