#N canvas 0 22 450 300 10;
#X obj 161 242 output~;
#X obj 160 103 mtof~;
#X obj 160 178 osc~;
#X obj 160 216 *~;
#X obj 292 195 line~;
#X obj 68 64 hsl 128 15 0 127 0 0 empty empty empty -2 -8 0 10 -262144
-1 -1 9800 1;
#X msg 342 119 1;
#X obj 342 144 t b 1;
#X obj 160 137 +~;
#X obj 233 86 osc~;
#X obj 233 112 *~;
#X floatatom 269 86 5 0 0 0 - - -;
#X floatatom 233 61 5 0 0 0 - - -;
#X msg 233 37 12;
#X obj 256 2 loadbang;
#X msg 269 61 8;
#X msg 292 170 0 500;
#X obj 88 24 notein;
#X connect 1 0 8 0;
#X connect 2 0 3 0;
#X connect 3 0 0 0;
#X connect 3 0 0 1;
#X connect 4 0 3 1;
#X connect 5 0 1 0;
#X connect 6 0 7 0;
#X connect 7 0 16 0;
#X connect 7 1 4 0;
#X connect 8 0 2 0;
#X connect 9 0 10 0;
#X connect 10 0 8 1;
#X connect 11 0 10 1;
#X connect 12 0 9 0;
#X connect 13 0 12 0;
#X connect 14 0 13 0;
#X connect 14 0 15 0;
#X connect 15 0 11 0;
#X connect 16 0 4 0;
#X connect 17 0 5 0;
#X connect 17 1 6 0;
