#N canvas 356 78 859 460 10;
#X floatatom 87 -25 0 0 0 0 - - -;
#X obj 0 -25 s rawmessage;
#X obj 136 -49 r rawmessage;
#X obj 136 -25 print rawmessage;
#X text -2 213 Reading of content;
#X text 172 212 Writing of content;
#X text -1 311 ToDo: Send actual seq-data to websocket in text-format
;
#N canvas 317 22 450 448 init-tables 0;
#X obj 27 51 table 1-notes 16;
#X obj 27 71 table 2-notes 16;
#X obj 27 91 table 3-notes 16;
#X obj 27 111 table 4-notes 16;
#X obj 27 135 table 5-notes 16;
#X obj 27 155 table 6-notes 16;
#X obj 27 175 table 7-notes 16;
#X obj 27 195 table 8-notes 16;
#X obj 27 219 table 9-notes 16;
#X obj 27 239 table 10-notes 16;
#X obj 27 259 table 11-notes 16;
#X obj 27 279 table 12-notes 16;
#X obj 27 303 table 13-notes 16;
#X obj 27 323 table 14-notes 16;
#X obj 27 343 table 15-notes 16;
#X obj 27 363 table 16-notes 16;
#X text 26 27 Notes;
#X text 166 27 Velocities;
#X obj 167 51 table 1-vel 16;
#X obj 167 71 table 2-vel 16;
#X obj 167 91 table 3-vel 16;
#X obj 167 111 table 4-vel 16;
#X obj 167 135 table 5-vel 16;
#X obj 167 155 table 6-vel 16;
#X obj 167 175 table 7-vel 16;
#X obj 167 195 table 8-vel 16;
#X obj 167 219 table 9-vel 16;
#X obj 167 239 table 10-vel 16;
#X obj 167 259 table 11-vel 16;
#X obj 167 279 table 12-vel 16;
#X obj 167 303 table 13-vel 16;
#X obj 167 323 table 14-vel 16;
#X obj 167 343 table 15-vel 16;
#X obj 167 363 table 16-vel 16;
#X restore 1 124 pd init-tables;
#N canvas 57 72 265 280 sequencer 1;
#X obj 23 31 r on;
#X text 57 32 trigger;
#X obj 23 113 cup;
#X obj 23 136 % 16;
#X obj 23 66 tgl 15 0 empty empty empty 17 7 0 10 -262144 -1 -1 0 1
;
#X msg 44 65 0;
#X obj 23 88 metro 125;
#X text 147 159 0..15;
#N canvas 270 138 465 453 trigger-notes 0;
#X obj 23 83 tabread 1-notes;
#X obj 204 83 tabread 1-vel;
#X obj 120 83 s 1-note;
#X obj 289 83 s 1-vel;
#X obj 23 103 tabread 2-notes;
#X obj 120 103 s 2-note;
#X obj 204 103 tabread 2-vel;
#X obj 289 103 s 2-vel;
#X obj 23 122 tabread 3-notes;
#X obj 120 122 s 3-note;
#X obj 204 122 tabread 3-vel;
#X obj 289 122 s 3-vel;
#X obj 23 141 tabread 4-notes;
#X obj 120 141 s 4-note;
#X obj 204 141 tabread 4-vel;
#X obj 289 141 s 4-vel;
#X obj 23 163 tabread 5-notes;
#X obj 120 163 s 5-note;
#X obj 204 163 tabread 5-vel;
#X obj 289 163 s 5-vel;
#X obj 23 183 tabread 6-notes;
#X obj 120 183 s 6-note;
#X obj 23 202 tabread 7-notes;
#X obj 204 183 tabread 6-vel;
#X obj 289 183 s 6-vel;
#X obj 120 202 s 7-note;
#X obj 204 202 tabread 7-vel;
#X obj 289 202 s 7-vel;
#X obj 23 221 tabread 8-notes;
#X obj 120 221 s 8-note;
#X obj 204 221 tabread 8-vel;
#X obj 289 221 s 8-vel;
#X obj 23 243 tabread 9-notes;
#X obj 120 243 s 9-note;
#X obj 204 243 tabread 9-vel;
#X obj 289 243 s 9-vel;
#X obj 23 264 tabread 10-notes;
#X obj 126 264 s 10-note;
#X obj 204 264 tabread 10-vel;
#X obj 295 264 s 10-vel;
#X obj 23 283 tabread 11-notes;
#X obj 126 283 s 11-note;
#X obj 204 283 tabread 11-vel;
#X obj 295 283 s 11-vel;
#X obj 23 302 tabread 12-notes;
#X obj 126 302 s 12-note;
#X obj 204 302 tabread 12-vel;
#X obj 295 302 s 12-vel;
#X obj 23 324 tabread 13-notes;
#X obj 126 324 s 13-note;
#X obj 204 324 tabread 13-vel;
#X obj 295 324 s 13-vel;
#X obj 23 344 tabread 14-notes;
#X obj 126 344 s 14-note;
#X obj 204 344 tabread 14-vel;
#X obj 295 344 s 14-vel;
#X obj 23 363 tabread 15-notes;
#X obj 126 363 s 15-note;
#X obj 204 363 tabread 15-vel;
#X obj 295 363 s 15-vel;
#X obj 23 382 tabread 16-notes;
#X obj 126 382 s 16-note;
#X obj 204 382 tabread 16-vel;
#X obj 295 382 s 16-vel;
#X obj 53 44 t f f;
#X obj 22 10 r seq-step-num-trig;
#X connect 0 0 2 0;
#X connect 1 0 3 0;
#X connect 4 0 5 0;
#X connect 6 0 7 0;
#X connect 8 0 9 0;
#X connect 10 0 11 0;
#X connect 12 0 13 0;
#X connect 14 0 15 0;
#X connect 16 0 17 0;
#X connect 18 0 19 0;
#X connect 20 0 21 0;
#X connect 22 0 25 0;
#X connect 23 0 24 0;
#X connect 26 0 27 0;
#X connect 28 0 29 0;
#X connect 30 0 31 0;
#X connect 32 0 33 0;
#X connect 34 0 35 0;
#X connect 36 0 37 0;
#X connect 38 0 39 0;
#X connect 40 0 41 0;
#X connect 42 0 43 0;
#X connect 44 0 45 0;
#X connect 46 0 47 0;
#X connect 48 0 49 0;
#X connect 50 0 51 0;
#X connect 52 0 53 0;
#X connect 54 0 55 0;
#X connect 56 0 57 0;
#X connect 58 0 59 0;
#X connect 60 0 61 0;
#X connect 62 0 63 0;
#X connect 64 0 0 0;
#X connect 64 0 4 0;
#X connect 64 0 8 0;
#X connect 64 0 12 0;
#X connect 64 0 16 0;
#X connect 64 0 20 0;
#X connect 64 0 22 0;
#X connect 64 0 28 0;
#X connect 64 0 32 0;
#X connect 64 0 36 0;
#X connect 64 0 40 0;
#X connect 64 0 44 0;
#X connect 64 0 48 0;
#X connect 64 0 52 0;
#X connect 64 0 56 0;
#X connect 64 0 60 0;
#X connect 64 1 1 0;
#X connect 64 1 6 0;
#X connect 64 1 10 0;
#X connect 64 1 14 0;
#X connect 64 1 18 0;
#X connect 64 1 23 0;
#X connect 64 1 26 0;
#X connect 64 1 30 0;
#X connect 64 1 34 0;
#X connect 64 1 38 0;
#X connect 64 1 42 0;
#X connect 64 1 46 0;
#X connect 64 1 50 0;
#X connect 64 1 54 0;
#X connect 64 1 58 0;
#X connect 64 1 62 0;
#X connect 65 0 64 0;
#X restore 23 212 pd trigger-notes;
#X obj 23 159 s seq-step-num-trig;
#X connect 0 0 4 0;
#X connect 2 0 3 0;
#X connect 3 0 9 0;
#X connect 4 0 6 0;
#X connect 5 0 2 0;
#X connect 6 0 2 0;
#X restore 0 236 pd sequencer;
#N canvas 250 58 707 419 write-tables 0;
#X obj 82 196 tabwrite 1-notes;
#X floatatom 82 134 5 0 0 0 - - -;
#X floatatom 82 34 5 0 0 0 - - -;
#X obj 82 158 pack f f;
#X obj 82 90 random 12;
#X obj 82 112 + 60;
#X obj 82 68 t b f;
#X obj 94 217 tabwrite 1-vel;
#X obj 203 196 tabwrite 2-notes;
#X obj 215 217 tabwrite 2-vel;
#X obj 320 196 tabwrite 3-notes;
#X obj 332 217 tabwrite 3-vel;
#X obj 436 197 tabwrite 4-notes;
#X obj 448 218 tabwrite 4-vel;
#X obj 82 246 tabwrite 5-notes;
#X obj 94 267 tabwrite 5-vel;
#X obj 203 245 tabwrite 6-notes;
#X obj 215 267 tabwrite 6-vel;
#X obj 320 246 tabwrite 7-notes;
#X obj 332 267 tabwrite 7-vel;
#X obj 436 247 tabwrite 8-notes;
#X obj 448 268 tabwrite 8-vel;
#X obj 82 295 tabwrite 9-notes;
#X obj 94 316 tabwrite 9-vel;
#X obj 203 295 tabwrite 10-notes;
#X obj 320 295 tabwrite 11-notes;
#X obj 215 316 tabwrite 10-vel;
#X obj 333 317 tabwrite 11-vel;
#X obj 436 296 tabwrite 12-notes;
#X obj 448 317 tabwrite 12-vel;
#X obj 82 345 tabwrite 13-notes;
#X obj 94 366 tabwrite 13-vel;
#X obj 203 345 tabwrite 14-notes;
#X obj 215 366 tabwrite 14-vel;
#X obj 320 345 tabwrite 15-notes;
#X obj 332 366 tabwrite 15-vel;
#X obj 436 346 tabwrite 16-notes;
#X obj 448 367 tabwrite 16-vel;
#X connect 1 0 3 0;
#X connect 2 0 6 0;
#X connect 3 0 0 0;
#X connect 3 0 7 0;
#X connect 4 0 5 0;
#X connect 5 0 1 0;
#X connect 6 0 4 0;
#X connect 6 1 3 1;
#X restore 176 235 pd write-tables;
#N canvas 612 37 472 645 makenotes 0;
#X obj 55 194 noteout 1;
#X obj 77 90 r 1-vel;
#X obj 55 109 r 1-note;
#X obj 55 170 makenote;
#X floatatom 100 151 5 0 0 0 - - -;
#X msg 100 131 25;
#X obj 183 55 loadbang;
#X obj 138 171 makenote;
#X floatatom 183 152 5 0 0 0 - - -;
#X msg 183 132 25;
#X obj 160 91 r 2-vel;
#X obj 138 110 r 2-note;
#X obj 138 195 noteout 2;
#X obj 223 171 makenote;
#X floatatom 268 152 5 0 0 0 - - -;
#X msg 268 132 25;
#X obj 245 91 r 3-vel;
#X obj 223 110 r 3-note;
#X obj 223 195 noteout 3;
#X obj 304 171 makenote;
#X floatatom 349 152 5 0 0 0 - - -;
#X msg 349 132 25;
#X obj 326 91 r 4-vel;
#X obj 304 110 r 4-note;
#X obj 304 195 noteout 4;
#X obj 55 300 makenote;
#X floatatom 100 281 5 0 0 0 - - -;
#X msg 100 261 25;
#X obj 138 301 makenote;
#X floatatom 183 282 5 0 0 0 - - -;
#X msg 183 262 25;
#X obj 223 301 makenote;
#X floatatom 268 282 5 0 0 0 - - -;
#X msg 268 262 25;
#X obj 304 301 makenote;
#X floatatom 349 282 5 0 0 0 - - -;
#X msg 349 262 25;
#X obj 55 430 makenote;
#X floatatom 100 411 5 0 0 0 - - -;
#X msg 100 391 25;
#X obj 138 431 makenote;
#X floatatom 183 412 5 0 0 0 - - -;
#X msg 183 392 25;
#X obj 223 431 makenote;
#X floatatom 268 412 5 0 0 0 - - -;
#X msg 268 392 25;
#X obj 304 431 makenote;
#X floatatom 349 412 5 0 0 0 - - -;
#X msg 349 392 25;
#X obj 55 560 makenote;
#X floatatom 100 541 5 0 0 0 - - -;
#X msg 100 521 25;
#X obj 138 561 makenote;
#X floatatom 183 542 5 0 0 0 - - -;
#X msg 183 522 25;
#X obj 223 561 makenote;
#X floatatom 268 542 5 0 0 0 - - -;
#X msg 268 522 25;
#X obj 304 561 makenote;
#X floatatom 349 542 5 0 0 0 - - -;
#X msg 349 522 25;
#X obj 77 220 r 5-vel;
#X obj 55 239 r 5-note;
#X obj 55 324 noteout 5;
#X obj 160 221 r 6-vel;
#X obj 138 240 r 6-note;
#X obj 138 325 noteout 6;
#X obj 245 221 r 7-vel;
#X obj 223 240 r 7-note;
#X obj 223 325 noteout 7;
#X obj 304 325 noteout 8;
#X obj 326 221 r 8-vel;
#X obj 304 240 r 8-note;
#X obj 77 350 r 9-vel;
#X obj 55 369 r 9-note;
#X obj 55 454 noteout 9;
#X obj 160 351 r 10-vel;
#X obj 138 370 r 10-note;
#X obj 138 455 noteout 10;
#X obj 245 351 r 11-vel;
#X obj 223 370 r 11-note;
#X obj 223 455 noteout 11;
#X obj 326 351 r 12-vel;
#X obj 304 370 r 12-note;
#X obj 304 455 noteout 12;
#X obj 77 480 r 13-vel;
#X obj 55 499 r 13-note;
#X obj 55 584 noteout 13;
#X obj 160 481 r 14-vel;
#X obj 138 500 r 14-note;
#X obj 138 585 noteout 14;
#X obj 245 481 r 15-vel;
#X obj 223 500 r 15-note;
#X obj 223 585 noteout 15;
#X obj 326 481 r 16-vel;
#X obj 304 500 r 16-note;
#X obj 304 585 noteout 16;
#X text 69 15 ToDo: Makenotes send for pd-internal use of notes;
#X connect 1 0 3 1;
#X connect 2 0 3 0;
#X connect 3 0 0 0;
#X connect 3 1 0 1;
#X connect 4 0 3 2;
#X connect 5 0 4 0;
#X connect 6 0 5 0;
#X connect 6 0 9 0;
#X connect 6 0 15 0;
#X connect 6 0 21 0;
#X connect 6 0 27 0;
#X connect 6 0 30 0;
#X connect 6 0 33 0;
#X connect 6 0 36 0;
#X connect 6 0 39 0;
#X connect 6 0 42 0;
#X connect 6 0 45 0;
#X connect 6 0 48 0;
#X connect 6 0 51 0;
#X connect 6 0 54 0;
#X connect 6 0 57 0;
#X connect 6 0 60 0;
#X connect 7 0 12 0;
#X connect 7 1 12 1;
#X connect 8 0 7 2;
#X connect 9 0 8 0;
#X connect 10 0 7 1;
#X connect 11 0 7 0;
#X connect 13 0 18 0;
#X connect 13 1 18 1;
#X connect 14 0 13 2;
#X connect 15 0 14 0;
#X connect 16 0 13 1;
#X connect 17 0 13 0;
#X connect 19 0 24 0;
#X connect 19 1 24 1;
#X connect 20 0 19 2;
#X connect 21 0 20 0;
#X connect 22 0 19 1;
#X connect 23 0 19 0;
#X connect 25 0 63 0;
#X connect 25 1 63 1;
#X connect 26 0 25 2;
#X connect 27 0 26 0;
#X connect 28 0 66 0;
#X connect 28 1 66 1;
#X connect 29 0 28 2;
#X connect 30 0 29 0;
#X connect 31 0 69 0;
#X connect 31 1 69 1;
#X connect 32 0 31 2;
#X connect 33 0 32 0;
#X connect 34 0 70 0;
#X connect 34 1 70 1;
#X connect 35 0 34 2;
#X connect 36 0 35 0;
#X connect 37 0 75 0;
#X connect 37 1 75 1;
#X connect 38 0 37 2;
#X connect 39 0 38 0;
#X connect 40 0 78 0;
#X connect 40 1 78 1;
#X connect 41 0 40 2;
#X connect 42 0 41 0;
#X connect 43 0 81 0;
#X connect 43 1 81 1;
#X connect 44 0 43 2;
#X connect 45 0 44 0;
#X connect 46 0 84 0;
#X connect 46 1 84 1;
#X connect 47 0 46 2;
#X connect 48 0 47 0;
#X connect 49 0 87 0;
#X connect 49 1 87 1;
#X connect 50 0 49 2;
#X connect 51 0 50 0;
#X connect 52 0 90 0;
#X connect 52 1 90 1;
#X connect 53 0 52 2;
#X connect 54 0 53 0;
#X connect 55 0 93 0;
#X connect 55 1 93 1;
#X connect 56 0 55 2;
#X connect 57 0 56 0;
#X connect 58 0 96 0;
#X connect 58 1 96 1;
#X connect 59 0 58 2;
#X connect 60 0 59 0;
#X connect 61 0 25 1;
#X connect 62 0 25 0;
#X connect 64 0 28 1;
#X connect 65 0 28 0;
#X connect 67 0 31 1;
#X connect 68 0 31 0;
#X connect 71 0 34 1;
#X connect 72 0 34 0;
#X connect 73 0 37 1;
#X connect 74 0 37 0;
#X connect 76 0 40 1;
#X connect 77 0 40 0;
#X connect 79 0 43 1;
#X connect 80 0 43 0;
#X connect 82 0 46 1;
#X connect 83 0 46 0;
#X connect 85 0 49 1;
#X connect 86 0 49 0;
#X connect 88 0 52 1;
#X connect 89 0 52 0;
#X connect 91 0 55 1;
#X connect 92 0 55 0;
#X connect 94 0 58 1;
#X connect 95 0 58 0;
#X restore 1 147 pd makenotes;
#X text -1 -82 Connect to socket and receive data;
#X text -1 103 The sequencer stuff;
#X text 303 -85 SuperSonic. A tool for (keyboard) LiveCoding.;
#X text 303 -60 2014 by Martin "Nodepond" Wisniowski. http://www.nodepond.com
;
#X text 303 -22 It's open source! https://github.com/nodepond/supersonic
;
#X text 185 130 NOTE: This is work in progress and not finished yet!
;
#N canvas 44 22 894 570 socket-message-router 1;
#X obj 192 379 cup;
#X obj 192 402 % 16;
#X obj 192 332 tgl 15 0 empty empty empty 17 7 0 10 -262144 -1 -1 0
1;
#X msg 213 331 0;
#X obj 192 354 metro 125;
#X msg 147 203 1;
#X msg 190 203 0;
#X obj 147 150 inlet;
#X obj 318 207 outlet;
#X text 184 149 input of SuperSonic data;
#X text 363 207 outputs the table-data;
#X obj 192 426 outlet;
#X text 239 427 outputs the sequencer number for reading the tableval
;
#X obj 147 178 route start stop reset length;
#X obj 147 -32 r rawmessage;
#X obj 193 42 route ch1 ch2 ch3 ch4 ch5 ch6 ch7 ch8 ch9 ch10 ch11 ch12
ch13 ch14 ch15 ch16;
#X obj 147 -8 route read write;
#X obj 251 89 print ch1;
#X obj 329 111 print ch2;
#X text 471 140 WORK IN PROGRESS / unfinished...;
#X connect 0 0 1 0;
#X connect 1 0 11 0;
#X connect 2 0 4 0;
#X connect 3 0 0 0;
#X connect 4 0 0 0;
#X connect 5 0 2 0;
#X connect 6 0 2 0;
#X connect 7 0 13 0;
#X connect 13 0 5 0;
#X connect 13 1 6 0;
#X connect 13 2 3 0;
#X connect 13 3 1 1;
#X connect 13 4 8 0;
#X connect 14 0 16 0;
#X connect 15 0 17 0;
#X connect 15 1 18 0;
#X connect 16 1 15 0;
#X restore 0 5 pd socket-message-router;
#X obj 0 -51 netreceive 3000;
#X connect 2 0 3 0;
#X connect 18 0 1 0;
#X connect 18 1 0 0;
