#N canvas 24 209 859 460 10;
#X floatatom 117 -5 0 0 0 0 - - -;
#X obj 30 -5 s rawmessage;
#X obj 166 -29 r rawmessage;
#X obj 166 -5 print rawmessage;
#X text 28 233 Reading of content;
#X text 202 232 Writing of content;
#X text 29 331 ToDo: Send actual seq-data to websocket in text-format
;
#N canvas 317 22 450 448 init-tables 0;
#X obj 27 51 table 1-notes 16;
#X obj 27 71 table 2-notes 16;
#X obj 27 91 table 3-notes 16;
#X obj 27 111 table 4-notes 16;
#X obj 27 135 table 5-notes 16;
#X obj 27 155 table 6-notes 16;
#X obj 27 175 table 7-notes 16;
#X obj 27 195 table 8-notes 16;
#X obj 27 219 table 9-notes 16;
#X obj 27 239 table 10-notes 16;
#X obj 27 259 table 11-notes 16;
#X obj 27 279 table 12-notes 16;
#X obj 27 303 table 13-notes 16;
#X obj 27 323 table 14-notes 16;
#X obj 27 343 table 15-notes 16;
#X obj 27 363 table 16-notes 16;
#X text 26 27 Notes;
#X text 166 27 Velocities;
#X obj 167 51 table 1-vel 16;
#X obj 167 71 table 2-vel 16;
#X obj 167 91 table 3-vel 16;
#X obj 167 111 table 4-vel 16;
#X obj 167 135 table 5-vel 16;
#X obj 167 155 table 6-vel 16;
#X obj 167 175 table 7-vel 16;
#X obj 167 195 table 8-vel 16;
#X obj 167 219 table 9-vel 16;
#X obj 167 239 table 10-vel 16;
#X obj 167 259 table 11-vel 16;
#X obj 167 279 table 12-vel 16;
#X obj 167 303 table 13-vel 16;
#X obj 167 323 table 14-vel 16;
#X obj 167 343 table 15-vel 16;
#X obj 167 363 table 16-vel 16;
#X restore 31 144 pd init-tables;
#N canvas 57 72 265 280 sequencer 1;
#X obj 23 31 r on;
#X text 57 32 trigger;
#X obj 23 113 cup;
#X obj 23 136 % 16;
#X obj 23 66 tgl 15 0 empty empty empty 17 7 0 10 -262144 -1 -1 1 1
;
#X msg 44 65 0;
#X obj 23 88 metro 125;
#X text 147 159 0..15;
#N canvas 270 138 465 453 trigger-notes 1;
#X obj 23 83 tabread 1-notes;
#X obj 204 83 tabread 1-vel;
#X obj 120 83 s 1-note;
#X obj 289 83 s 1-vel;
#X obj 23 103 tabread 2-notes;
#X obj 120 103 s 2-note;
#X obj 204 103 tabread 2-vel;
#X obj 289 103 s 2-vel;
#X obj 23 122 tabread 3-notes;
#X obj 120 122 s 3-note;
#X obj 204 122 tabread 3-vel;
#X obj 289 122 s 3-vel;
#X obj 23 141 tabread 4-notes;
#X obj 120 141 s 4-note;
#X obj 204 141 tabread 4-vel;
#X obj 289 141 s 4-vel;
#X obj 23 163 tabread 5-notes;
#X obj 120 163 s 5-note;
#X obj 204 163 tabread 5-vel;
#X obj 289 163 s 5-vel;
#X obj 23 183 tabread 6-notes;
#X obj 120 183 s 6-note;
#X obj 23 202 tabread 7-notes;
#X obj 204 183 tabread 6-vel;
#X obj 289 183 s 6-vel;
#X obj 120 202 s 7-note;
#X obj 204 202 tabread 7-vel;
#X obj 289 202 s 7-vel;
#X obj 23 221 tabread 8-notes;
#X obj 120 221 s 8-note;
#X obj 204 221 tabread 8-vel;
#X obj 289 221 s 8-vel;
#X obj 23 243 tabread 9-notes;
#X obj 120 243 s 9-note;
#X obj 204 243 tabread 9-vel;
#X obj 289 243 s 9-vel;
#X obj 23 264 tabread 10-notes;
#X obj 126 264 s 10-note;
#X obj 204 264 tabread 10-vel;
#X obj 295 264 s 10-vel;
#X obj 23 283 tabread 11-notes;
#X obj 126 283 s 11-note;
#X obj 204 283 tabread 11-vel;
#X obj 295 283 s 11-vel;
#X obj 23 302 tabread 12-notes;
#X obj 126 302 s 12-note;
#X obj 204 302 tabread 12-vel;
#X obj 295 302 s 12-vel;
#X obj 23 324 tabread 13-notes;
#X obj 126 324 s 13-note;
#X obj 204 324 tabread 13-vel;
#X obj 295 324 s 13-vel;
#X obj 23 344 tabread 14-notes;
#X obj 126 344 s 14-note;
#X obj 204 344 tabread 14-vel;
#X obj 295 344 s 14-vel;
#X obj 23 363 tabread 15-notes;
#X obj 126 363 s 15-note;
#X obj 204 363 tabread 15-vel;
#X obj 295 363 s 15-vel;
#X obj 23 382 tabread 16-notes;
#X obj 126 382 s 16-note;
#X obj 204 382 tabread 16-vel;
#X obj 295 382 s 16-vel;
#X obj 53 44 t f f;
#X obj 22 10 r seq-step-num-trig;
#X connect 0 0 2 0;
#X connect 1 0 3 0;
#X connect 4 0 5 0;
#X connect 6 0 7 0;
#X connect 8 0 9 0;
#X connect 10 0 11 0;
#X connect 12 0 13 0;
#X connect 14 0 15 0;
#X connect 16 0 17 0;
#X connect 18 0 19 0;
#X connect 20 0 21 0;
#X connect 22 0 25 0;
#X connect 23 0 24 0;
#X connect 26 0 27 0;
#X connect 28 0 29 0;
#X connect 30 0 31 0;
#X connect 32 0 33 0;
#X connect 34 0 35 0;
#X connect 36 0 37 0;
#X connect 38 0 39 0;
#X connect 40 0 41 0;
#X connect 42 0 43 0;
#X connect 44 0 45 0;
#X connect 46 0 47 0;
#X connect 48 0 49 0;
#X connect 50 0 51 0;
#X connect 52 0 53 0;
#X connect 54 0 55 0;
#X connect 56 0 57 0;
#X connect 58 0 59 0;
#X connect 60 0 61 0;
#X connect 62 0 63 0;
#X connect 64 0 0 0;
#X connect 64 0 4 0;
#X connect 64 0 8 0;
#X connect 64 0 12 0;
#X connect 64 0 16 0;
#X connect 64 0 20 0;
#X connect 64 0 22 0;
#X connect 64 0 28 0;
#X connect 64 0 32 0;
#X connect 64 0 36 0;
#X connect 64 0 40 0;
#X connect 64 0 44 0;
#X connect 64 0 48 0;
#X connect 64 0 52 0;
#X connect 64 0 56 0;
#X connect 64 0 60 0;
#X connect 64 1 1 0;
#X connect 64 1 6 0;
#X connect 64 1 10 0;
#X connect 64 1 14 0;
#X connect 64 1 18 0;
#X connect 64 1 23 0;
#X connect 64 1 26 0;
#X connect 64 1 30 0;
#X connect 64 1 34 0;
#X connect 64 1 38 0;
#X connect 64 1 42 0;
#X connect 64 1 46 0;
#X connect 64 1 50 0;
#X connect 64 1 54 0;
#X connect 64 1 58 0;
#X connect 64 1 62 0;
#X connect 65 0 64 0;
#X restore 23 212 pd trigger-notes;
#X obj 23 159 s seq-step-num-trig;
#X connect 0 0 4 0;
#X connect 2 0 3 0;
#X connect 3 0 9 0;
#X connect 4 0 6 0;
#X connect 5 0 2 0;
#X connect 6 0 2 0;
#X restore 30 256 pd sequencer;
#N canvas 621 50 707 419 write-tables 0;
#X obj 82 196 tabwrite 1-notes;
#X floatatom 82 134 5 0 0 0 - - -;
#X floatatom 82 34 5 0 0 0 - - -;
#X obj 82 158 pack f f;
#X obj 82 90 random 12;
#X obj 82 112 + 60;
#X obj 82 68 t b f;
#X obj 94 217 tabwrite 1-vel;
#X obj 203 196 tabwrite 2-notes;
#X obj 215 217 tabwrite 2-vel;
#X obj 320 196 tabwrite 3-notes;
#X obj 332 217 tabwrite 3-vel;
#X obj 436 197 tabwrite 4-notes;
#X obj 448 218 tabwrite 4-vel;
#X obj 82 246 tabwrite 5-notes;
#X obj 94 267 tabwrite 5-vel;
#X obj 203 245 tabwrite 6-notes;
#X obj 215 267 tabwrite 6-vel;
#X obj 320 246 tabwrite 7-notes;
#X obj 332 267 tabwrite 7-vel;
#X obj 436 247 tabwrite 8-notes;
#X obj 448 268 tabwrite 8-vel;
#X obj 82 295 tabwrite 9-notes;
#X obj 94 316 tabwrite 9-vel;
#X obj 203 295 tabwrite 10-notes;
#X obj 320 295 tabwrite 11-notes;
#X obj 215 316 tabwrite 10-vel;
#X obj 333 317 tabwrite 11-vel;
#X obj 436 296 tabwrite 12-notes;
#X obj 448 317 tabwrite 12-vel;
#X obj 82 345 tabwrite 13-notes;
#X obj 94 366 tabwrite 13-vel;
#X obj 203 345 tabwrite 14-notes;
#X obj 215 366 tabwrite 14-vel;
#X obj 320 345 tabwrite 15-notes;
#X obj 332 366 tabwrite 15-vel;
#X obj 436 346 tabwrite 16-notes;
#X obj 448 367 tabwrite 16-vel;
#X connect 1 0 3 0;
#X connect 2 0 6 0;
#X connect 3 0 0 0;
#X connect 3 0 7 0;
#X connect 4 0 5 0;
#X connect 5 0 1 0;
#X connect 6 0 4 0;
#X connect 6 1 3 1;
#X restore 206 255 pd write-tables;
#N canvas 650 37 472 645 makenotes 0;
#X obj 55 194 noteout 1;
#X obj 77 90 r 1-vel;
#X obj 55 109 r 1-note;
#X obj 55 170 makenote;
#X floatatom 100 151 5 0 0 0 - - -;
#X msg 100 131 25;
#X obj 183 55 loadbang;
#X obj 138 171 makenote;
#X floatatom 183 152 5 0 0 0 - - -;
#X msg 183 132 25;
#X obj 160 91 r 2-vel;
#X obj 138 110 r 2-note;
#X obj 138 195 noteout 2;
#X obj 223 171 makenote;
#X floatatom 268 152 5 0 0 0 - - -;
#X msg 268 132 25;
#X obj 245 91 r 3-vel;
#X obj 223 110 r 3-note;
#X obj 223 195 noteout 3;
#X obj 304 171 makenote;
#X floatatom 349 152 5 0 0 0 - - -;
#X msg 349 132 25;
#X obj 326 91 r 4-vel;
#X obj 304 110 r 4-note;
#X obj 304 195 noteout 4;
#X obj 55 300 makenote;
#X floatatom 100 281 5 0 0 0 - - -;
#X msg 100 261 25;
#X obj 138 301 makenote;
#X floatatom 183 282 5 0 0 0 - - -;
#X msg 183 262 25;
#X obj 223 301 makenote;
#X floatatom 268 282 5 0 0 0 - - -;
#X msg 268 262 25;
#X obj 304 301 makenote;
#X floatatom 349 282 5 0 0 0 - - -;
#X msg 349 262 25;
#X obj 55 430 makenote;
#X floatatom 100 411 5 0 0 0 - - -;
#X msg 100 391 25;
#X obj 138 431 makenote;
#X floatatom 183 412 5 0 0 0 - - -;
#X msg 183 392 25;
#X obj 223 431 makenote;
#X floatatom 268 412 5 0 0 0 - - -;
#X msg 268 392 25;
#X obj 304 431 makenote;
#X floatatom 349 412 5 0 0 0 - - -;
#X msg 349 392 25;
#X obj 55 560 makenote;
#X floatatom 100 541 5 0 0 0 - - -;
#X msg 100 521 25;
#X obj 138 561 makenote;
#X floatatom 183 542 5 0 0 0 - - -;
#X msg 183 522 25;
#X obj 223 561 makenote;
#X floatatom 268 542 5 0 0 0 - - -;
#X msg 268 522 25;
#X obj 304 561 makenote;
#X floatatom 349 542 5 0 0 0 - - -;
#X msg 349 522 25;
#X obj 77 220 r 5-vel;
#X obj 55 239 r 5-note;
#X obj 55 324 noteout 5;
#X obj 160 221 r 6-vel;
#X obj 138 240 r 6-note;
#X obj 138 325 noteout 6;
#X obj 245 221 r 7-vel;
#X obj 223 240 r 7-note;
#X obj 223 325 noteout 7;
#X obj 304 325 noteout 8;
#X obj 326 221 r 8-vel;
#X obj 304 240 r 8-note;
#X obj 77 350 r 9-vel;
#X obj 55 369 r 9-note;
#X obj 55 454 noteout 9;
#X obj 160 351 r 10-vel;
#X obj 138 370 r 10-note;
#X obj 138 455 noteout 10;
#X obj 245 351 r 11-vel;
#X obj 223 370 r 11-note;
#X obj 223 455 noteout 11;
#X obj 326 351 r 12-vel;
#X obj 304 370 r 12-note;
#X obj 304 455 noteout 12;
#X obj 77 480 r 13-vel;
#X obj 55 499 r 13-note;
#X obj 55 584 noteout 13;
#X obj 160 481 r 14-vel;
#X obj 138 500 r 14-note;
#X obj 138 585 noteout 14;
#X obj 245 481 r 15-vel;
#X obj 223 500 r 15-note;
#X obj 223 585 noteout 15;
#X obj 326 481 r 16-vel;
#X obj 304 500 r 16-note;
#X obj 304 585 noteout 16;
#X connect 1 0 3 1;
#X connect 2 0 3 0;
#X connect 3 0 0 0;
#X connect 3 1 0 1;
#X connect 4 0 3 2;
#X connect 5 0 4 0;
#X connect 6 0 5 0;
#X connect 6 0 9 0;
#X connect 6 0 15 0;
#X connect 6 0 21 0;
#X connect 6 0 27 0;
#X connect 6 0 30 0;
#X connect 6 0 33 0;
#X connect 6 0 36 0;
#X connect 6 0 39 0;
#X connect 6 0 42 0;
#X connect 6 0 45 0;
#X connect 6 0 48 0;
#X connect 6 0 51 0;
#X connect 6 0 54 0;
#X connect 6 0 57 0;
#X connect 6 0 60 0;
#X connect 7 0 12 0;
#X connect 7 1 12 1;
#X connect 8 0 7 2;
#X connect 9 0 8 0;
#X connect 10 0 7 1;
#X connect 11 0 7 0;
#X connect 13 0 18 0;
#X connect 13 1 18 1;
#X connect 14 0 13 2;
#X connect 15 0 14 0;
#X connect 16 0 13 1;
#X connect 17 0 13 0;
#X connect 19 0 24 0;
#X connect 19 1 24 1;
#X connect 20 0 19 2;
#X connect 21 0 20 0;
#X connect 22 0 19 1;
#X connect 23 0 19 0;
#X connect 25 0 63 0;
#X connect 25 1 63 1;
#X connect 26 0 25 2;
#X connect 27 0 26 0;
#X connect 28 0 66 0;
#X connect 28 1 66 1;
#X connect 29 0 28 2;
#X connect 30 0 29 0;
#X connect 31 0 69 0;
#X connect 31 1 69 1;
#X connect 32 0 31 2;
#X connect 33 0 32 0;
#X connect 34 0 70 0;
#X connect 34 1 70 1;
#X connect 35 0 34 2;
#X connect 36 0 35 0;
#X connect 37 0 75 0;
#X connect 37 1 75 1;
#X connect 38 0 37 2;
#X connect 39 0 38 0;
#X connect 40 0 78 0;
#X connect 40 1 78 1;
#X connect 41 0 40 2;
#X connect 42 0 41 0;
#X connect 43 0 81 0;
#X connect 43 1 81 1;
#X connect 44 0 43 2;
#X connect 45 0 44 0;
#X connect 46 0 84 0;
#X connect 46 1 84 1;
#X connect 47 0 46 2;
#X connect 48 0 47 0;
#X connect 49 0 87 0;
#X connect 49 1 87 1;
#X connect 50 0 49 2;
#X connect 51 0 50 0;
#X connect 52 0 90 0;
#X connect 52 1 90 1;
#X connect 53 0 52 2;
#X connect 54 0 53 0;
#X connect 55 0 93 0;
#X connect 55 1 93 1;
#X connect 56 0 55 2;
#X connect 57 0 56 0;
#X connect 58 0 96 0;
#X connect 58 1 96 1;
#X connect 59 0 58 2;
#X connect 60 0 59 0;
#X connect 61 0 25 1;
#X connect 62 0 25 0;
#X connect 64 0 28 1;
#X connect 65 0 28 0;
#X connect 67 0 31 1;
#X connect 68 0 31 0;
#X connect 71 0 34 1;
#X connect 72 0 34 0;
#X connect 73 0 37 1;
#X connect 74 0 37 0;
#X connect 76 0 40 1;
#X connect 77 0 40 0;
#X connect 79 0 43 1;
#X connect 80 0 43 0;
#X connect 82 0 46 1;
#X connect 83 0 46 0;
#X connect 85 0 49 1;
#X connect 86 0 49 0;
#X connect 88 0 52 1;
#X connect 89 0 52 0;
#X connect 91 0 55 1;
#X connect 92 0 55 0;
#X connect 94 0 58 1;
#X connect 95 0 58 0;
#X restore 31 167 pd makenotes;
#X text 29 -62 Connect to socket and receive data;
#X text 29 123 The sequencer stuff;
#X text 333 -65 SuperSonic. A tool for (keyboard) LiveCoding.;
#X text 333 -40 2014 by Martin "Nodepond" Wisniowski. http://www.nodepond.com
;
#X text 333 -2 It's open source! https://github.com/nodepond/supersonic
;
#X text 215 150 NOTE: This is work in progress and not finished yet!
;
#N canvas 18 120 1109 623 socket-message-router 0;
#X obj 69 735 cup;
#X obj 69 678 % 16;
#X obj 69 688 tgl 15 0 empty empty empty 17 7 0 10 -262144 -1 -1 0
1;
#X msg 90 687 0;
#X obj 69 710 metro 125;
#X msg 24 559 1;
#X msg 67 559 0;
#X obj 24 506 inlet;
#X obj 195 563 outlet;
#X text 61 505 input of SuperSonic data;
#X text 240 563 outputs the table-data;
#X obj 69 692 outlet;
#X text 116 693 outputs the sequencer number for reading the tableval
;
#X obj 24 534 route start stop reset length;
#X obj 147 -32 r rawmessage;
#X obj 193 38 route ch1 ch2 ch3 ch4 ch5 ch6 ch7 ch8 ch9 ch10 ch11 ch12
ch13 ch14 ch15 ch16;
#X obj 147 -8 route read write;
#X obj 220 124 s write_channel;
#X obj 193 144 s write_data;
#X msg 220 103 1;
#X obj 193 82 t l b;
#X obj 220 207 s write_channel;
#X obj 193 227 s write_data;
#X obj 193 165 t l b;
#X msg 220 186 2;
#X obj 220 290 s write_channel;
#X obj 193 310 s write_data;
#X obj 193 248 t l b;
#X msg 220 269 3;
#X obj 220 373 s write_channel;
#X obj 193 393 s write_data;
#X obj 193 331 t l b;
#X msg 220 352 4;
#X obj 352 125 s write_channel;
#X obj 325 145 s write_data;
#X obj 325 83 t l b;
#X obj 352 208 s write_channel;
#X obj 325 228 s write_data;
#X obj 325 166 t l b;
#X obj 352 291 s write_channel;
#X obj 325 311 s write_data;
#X obj 325 249 t l b;
#X obj 352 374 s write_channel;
#X obj 325 394 s write_data;
#X obj 325 332 t l b;
#X msg 352 104 5;
#X msg 352 187 6;
#X msg 352 270 7;
#X msg 352 353 8;
#X obj 478 124 s write_channel;
#X obj 451 144 s write_data;
#X obj 451 82 t l b;
#X obj 478 207 s write_channel;
#X obj 451 227 s write_data;
#X obj 451 165 t l b;
#X obj 478 290 s write_channel;
#X obj 451 310 s write_data;
#X obj 451 248 t l b;
#X obj 478 373 s write_channel;
#X obj 451 393 s write_data;
#X obj 451 331 t l b;
#X obj 610 125 s write_channel;
#X obj 583 145 s write_data;
#X obj 583 83 t l b;
#X obj 610 208 s write_channel;
#X obj 583 228 s write_data;
#X obj 583 166 t l b;
#X obj 610 291 s write_channel;
#X obj 583 311 s write_data;
#X obj 583 249 t l b;
#X obj 610 374 s write_channel;
#X obj 583 394 s write_data;
#X obj 583 332 t l b;
#X msg 478 103 9;
#X msg 478 186 10;
#X msg 478 269 11;
#X msg 478 352 12;
#X msg 610 104 13;
#X msg 610 187 14;
#X msg 610 270 15;
#X msg 610 353 16;
#N canvas 32 41 653 342 write-seq 0;
#X text 442 74 we have \$1-notes;
#X text 442 85 we have \$1-vel;
#X obj 165 25 r write_data;
#X obj 55 25 r write_channel;
#X msg 55 79 set \$1-notes;
#X text 273 22 Convention: first send chnum \, then channel_data;
#X obj 165 124 drip;
#X obj 210 180 cup;
#X msg 184 99 0;
#X obj 165 206 pack f f;
#X obj 165 151 t f b;
#X obj 165 62 t l b b;
#X text 238 181 Converting a list into an array.;
#X obj 224 98 f \$0;
#X msg 224 123 \; \$1-notes const 0;
#X obj 164 237 tabwrite;
#X connect 2 0 11 0;
#X connect 3 0 4 0;
#X connect 3 0 14 0;
#X connect 4 0 15 0;
#X connect 6 0 10 0;
#X connect 7 0 9 1;
#X connect 8 0 7 0;
#X connect 9 0 15 0;
#X connect 10 0 9 0;
#X connect 10 1 7 0;
#X connect 11 0 6 0;
#X connect 11 1 8 0;
#X connect 13 0 14 0;
#X restore 724 37 pd write-seq;
#X connect 0 0 1 0;
#X connect 1 0 11 0;
#X connect 2 0 4 0;
#X connect 3 0 0 0;
#X connect 4 0 0 0;
#X connect 5 0 2 0;
#X connect 6 0 2 0;
#X connect 7 0 13 0;
#X connect 13 0 5 0;
#X connect 13 1 6 0;
#X connect 13 2 3 0;
#X connect 13 3 1 1;
#X connect 13 4 8 0;
#X connect 14 0 16 0;
#X connect 15 0 20 0;
#X connect 15 1 23 0;
#X connect 15 2 27 0;
#X connect 15 3 31 0;
#X connect 15 4 35 0;
#X connect 15 5 38 0;
#X connect 15 6 41 0;
#X connect 15 7 44 0;
#X connect 15 8 51 0;
#X connect 15 9 54 0;
#X connect 15 10 57 0;
#X connect 15 11 60 0;
#X connect 15 12 63 0;
#X connect 15 13 66 0;
#X connect 15 14 69 0;
#X connect 15 15 72 0;
#X connect 16 1 15 0;
#X connect 19 0 17 0;
#X connect 20 0 18 0;
#X connect 20 1 19 0;
#X connect 23 0 22 0;
#X connect 23 1 24 0;
#X connect 24 0 21 0;
#X connect 27 0 26 0;
#X connect 27 1 28 0;
#X connect 28 0 25 0;
#X connect 31 0 30 0;
#X connect 31 1 32 0;
#X connect 32 0 29 0;
#X connect 35 0 34 0;
#X connect 35 1 45 0;
#X connect 38 0 37 0;
#X connect 38 1 46 0;
#X connect 41 0 40 0;
#X connect 41 1 47 0;
#X connect 44 0 43 0;
#X connect 44 1 48 0;
#X connect 45 0 33 0;
#X connect 46 0 36 0;
#X connect 47 0 39 0;
#X connect 48 0 42 0;
#X connect 51 0 50 0;
#X connect 51 1 73 0;
#X connect 54 0 53 0;
#X connect 54 1 74 0;
#X connect 57 0 56 0;
#X connect 57 1 75 0;
#X connect 60 0 59 0;
#X connect 60 1 76 0;
#X connect 63 0 62 0;
#X connect 63 1 77 0;
#X connect 66 0 65 0;
#X connect 66 1 78 0;
#X connect 69 0 68 0;
#X connect 69 1 79 0;
#X connect 72 0 71 0;
#X connect 72 1 80 0;
#X connect 73 0 49 0;
#X connect 74 0 52 0;
#X connect 75 0 55 0;
#X connect 76 0 58 0;
#X connect 77 0 61 0;
#X connect 78 0 64 0;
#X connect 79 0 67 0;
#X connect 80 0 70 0;
#X restore 30 25 pd socket-message-router;
#X obj 30 -31 netreceive 3000;
#N canvas 549 22 305 318 seq-visi 0;
#X obj 21 23 bng 15 100 50 0 empty visi-ch1-1 empty 17 7 0 10 -262144
-258113 -1;
#X obj 36 23 bng 15 100 50 0 empty visi-ch1-2 empty 17 7 0 10 -262144
-258113 -1;
#X obj 51 23 bng 15 100 50 0 empty visi-ch1-3 empty 17 7 0 10 -262144
-258113 -1;
#X obj 66 23 bng 15 100 50 0 empty visi-ch1-4 empty 17 7 0 10 -262144
-258113 -1;
#X obj 85 23 bng 15 100 50 0 empty visi-ch1-5 empty 17 7 0 10 -262144
-258113 -1;
#X obj 100 23 bng 15 100 50 0 empty visi-ch1-6 empty 17 7 0 10 -262144
-258113 -1;
#X obj 115 23 bng 15 100 50 0 empty visi-ch1-7 empty 17 7 0 10 -262144
-258113 -1;
#X obj 130 23 bng 15 100 50 0 empty visi-ch1-8 empty 17 7 0 10 -262144
-258113 -1;
#X obj 149 23 bng 15 100 50 0 empty visi-ch1-9 empty 17 7 0 10 -262144
-258113 -1;
#X obj 164 23 bng 15 100 50 0 empty visi-ch1-10 empty 17 7 0 10 -262144
-258113 -1;
#X obj 179 23 bng 15 100 50 0 empty visi-ch1-11 empty 17 7 0 10 -262144
-258113 -1;
#X obj 194 23 bng 15 100 50 0 empty visi-ch1-12 empty 17 7 0 10 -262144
-258113 -1;
#X obj 213 23 bng 15 100 50 0 empty visi-ch1-13 empty 17 7 0 10 -262144
-258113 -1;
#X obj 228 23 bng 15 100 50 0 empty visi-ch1-14 empty 17 7 0 10 -262144
-258113 -1;
#X obj 243 23 bng 15 100 50 0 empty visi-ch1-15 empty 17 7 0 10 -262144
-258113 -1;
#X obj 258 23 bng 15 100 50 0 empty visi-ch1-16 empty 17 7 0 10 -262144
-258113 -1;
#X obj 21 38 bng 15 100 50 0 empty visi-ch2-1 empty 17 7 0 10 -262144
-258113 -1;
#X obj 36 38 bng 15 100 50 0 empty visi-ch2-2 empty 17 7 0 10 -262144
-258113 -1;
#X obj 51 38 bng 15 100 50 0 empty visi-ch2-3 empty 17 7 0 10 -262144
-258113 -1;
#X obj 66 38 bng 15 100 50 0 empty visi-ch2-4 empty 17 7 0 10 -262144
-258113 -1;
#X obj 85 38 bng 15 100 50 0 empty visi-ch2-5 empty 17 7 0 10 -262144
-258113 -1;
#X obj 100 38 bng 15 100 50 0 empty visi-ch2-6 empty 17 7 0 10 -262144
-258113 -1;
#X obj 115 38 bng 15 100 50 0 empty visi-ch2-7 empty 17 7 0 10 -262144
-258113 -1;
#X obj 130 38 bng 15 100 50 0 empty visi-ch2-8 empty 17 7 0 10 -262144
-258113 -1;
#X obj 149 38 bng 15 100 50 0 empty visi-ch2-9 empty 17 7 0 10 -262144
-258113 -1;
#X obj 164 38 bng 15 100 50 0 empty visi-ch2-10 empty 17 7 0 10 -262144
-258113 -1;
#X obj 179 38 bng 15 100 50 0 empty visi-ch2-11 empty 17 7 0 10 -262144
-258113 -1;
#X obj 194 38 bng 15 100 50 0 empty visi-ch2-12 empty 17 7 0 10 -262144
-258113 -1;
#X obj 213 38 bng 15 100 50 0 empty visi-ch2-13 empty 17 7 0 10 -262144
-258113 -1;
#X obj 228 38 bng 15 100 50 0 empty visi-ch2-14 empty 17 7 0 10 -262144
-258113 -1;
#X obj 243 38 bng 15 100 50 0 empty visi-ch2-15 empty 17 7 0 10 -262144
-258113 -1;
#X obj 258 38 bng 15 100 50 0 empty visi-ch2-16 empty 17 7 0 10 -262144
-258113 -1;
#X obj 21 53 bng 15 100 50 0 empty visi-ch3-1 empty 17 7 0 10 -262144
-258113 -1;
#X obj 36 53 bng 15 100 50 0 empty visi-ch3-2 empty 17 7 0 10 -262144
-258113 -1;
#X obj 51 53 bng 15 100 50 0 empty visi-ch3-3 empty 17 7 0 10 -262144
-258113 -1;
#X obj 66 53 bng 15 100 50 0 empty visi-ch3-4 empty 17 7 0 10 -262144
-258113 -1;
#X obj 85 53 bng 15 100 50 0 empty visi-ch3-5 empty 17 7 0 10 -262144
-258113 -1;
#X obj 100 53 bng 15 100 50 0 empty visi-ch3-6 empty 17 7 0 10 -262144
-258113 -1;
#X obj 115 53 bng 15 100 50 0 empty visi-ch3-7 empty 17 7 0 10 -262144
-258113 -1;
#X obj 130 53 bng 15 100 50 0 empty visi-ch3-8 empty 17 7 0 10 -262144
-258113 -1;
#X obj 149 53 bng 15 100 50 0 empty visi-ch3-9 empty 17 7 0 10 -262144
-258113 -1;
#X obj 164 53 bng 15 100 50 0 empty visi-ch3-10 empty 17 7 0 10 -262144
-258113 -1;
#X obj 179 53 bng 15 100 50 0 empty visi-ch3-11 empty 17 7 0 10 -262144
-258113 -1;
#X obj 194 53 bng 15 100 50 0 empty visi-ch3-12 empty 17 7 0 10 -262144
-258113 -1;
#X obj 213 53 bng 15 100 50 0 empty visi-ch3-13 empty 17 7 0 10 -262144
-258113 -1;
#X obj 228 53 bng 15 100 50 0 empty visi-ch3-14 empty 17 7 0 10 -262144
-258113 -1;
#X obj 243 53 bng 15 100 50 0 empty visi-ch3-15 empty 17 7 0 10 -262144
-258113 -1;
#X obj 258 53 bng 15 100 50 0 empty visi-ch3-16 empty 17 7 0 10 -262144
-258113 -1;
#X obj 21 68 bng 15 100 50 0 empty visi-ch4-1 empty 17 7 0 10 -262144
-258113 -1;
#X obj 36 68 bng 15 100 50 0 empty visi-ch4-2 empty 17 7 0 10 -262144
-258113 -1;
#X obj 51 68 bng 15 100 50 0 empty visi-ch4-3 empty 17 7 0 10 -262144
-258113 -1;
#X obj 66 68 bng 15 100 50 0 empty visi-ch4-4 empty 17 7 0 10 -262144
-258113 -1;
#X obj 85 68 bng 15 100 50 0 empty visi-ch4-5 empty 17 7 0 10 -262144
-258113 -1;
#X obj 100 68 bng 15 100 50 0 empty visi-ch4-6 empty 17 7 0 10 -262144
-258113 -1;
#X obj 115 68 bng 15 100 50 0 empty visi-ch4-7 empty 17 7 0 10 -262144
-258113 -1;
#X obj 130 68 bng 15 100 50 0 empty visi-ch4-8 empty 17 7 0 10 -262144
-258113 -1;
#X obj 149 68 bng 15 100 50 0 empty visi-ch4-9 empty 17 7 0 10 -262144
-258113 -1;
#X obj 164 68 bng 15 100 50 0 empty visi-ch4-10 empty 17 7 0 10 -262144
-258113 -1;
#X obj 179 68 bng 15 100 50 0 empty visi-ch4-11 empty 17 7 0 10 -262144
-258113 -1;
#X obj 194 68 bng 15 100 50 0 empty visi-ch4-12 empty 17 7 0 10 -262144
-258113 -1;
#X obj 213 68 bng 15 100 50 0 empty visi-ch4-13 empty 17 7 0 10 -262144
-258113 -1;
#X obj 228 68 bng 15 100 50 0 empty visi-ch4-14 empty 17 7 0 10 -262144
-258113 -1;
#X obj 243 68 bng 15 100 50 0 empty visi-ch4-15 empty 17 7 0 10 -262144
-258113 -1;
#X obj 258 68 bng 15 100 50 0 empty visi-ch4-16 empty 17 7 0 10 -262144
-258113 -1;
#X obj 21 86 bng 15 100 50 0 empty visi-ch5-1 empty 17 7 0 10 -262144
-258113 -1;
#X obj 36 86 bng 15 100 50 0 empty visi-ch5-2 empty 17 7 0 10 -262144
-258113 -1;
#X obj 51 86 bng 15 100 50 0 empty visi-ch5-3 empty 17 7 0 10 -262144
-258113 -1;
#X obj 66 86 bng 15 100 50 0 empty visi-ch5-4 empty 17 7 0 10 -262144
-258113 -1;
#X obj 85 86 bng 15 100 50 0 empty visi-ch5-5 empty 17 7 0 10 -262144
-258113 -1;
#X obj 100 86 bng 15 100 50 0 empty visi-ch5-6 empty 17 7 0 10 -262144
-258113 -1;
#X obj 115 86 bng 15 100 50 0 empty visi-ch5-7 empty 17 7 0 10 -262144
-258113 -1;
#X obj 130 86 bng 15 100 50 0 empty visi-ch5-8 empty 17 7 0 10 -262144
-258113 -1;
#X obj 149 86 bng 15 100 50 0 empty visi-ch5-9 empty 17 7 0 10 -262144
-258113 -1;
#X obj 164 86 bng 15 100 50 0 empty visi-ch5-10 empty 17 7 0 10 -262144
-258113 -1;
#X obj 179 86 bng 15 100 50 0 empty visi-ch5-11 empty 17 7 0 10 -262144
-258113 -1;
#X obj 194 86 bng 15 100 50 0 empty visi-ch5-12 empty 17 7 0 10 -262144
-258113 -1;
#X obj 213 86 bng 15 100 50 0 empty visi-ch5-13 empty 17 7 0 10 -262144
-258113 -1;
#X obj 228 86 bng 15 100 50 0 empty visi-ch5-14 empty 17 7 0 10 -262144
-258113 -1;
#X obj 243 86 bng 15 100 50 0 empty visi-ch5-15 empty 17 7 0 10 -262144
-258113 -1;
#X obj 258 86 bng 15 100 50 0 empty visi-ch5-16 empty 17 7 0 10 -262144
-258113 -1;
#X obj 21 101 bng 15 100 50 0 empty visi-ch6-1 empty 17 7 0 10 -262144
-258113 -1;
#X obj 36 101 bng 15 100 50 0 empty visi-ch6-2 empty 17 7 0 10 -262144
-258113 -1;
#X obj 51 101 bng 15 100 50 0 empty visi-ch6-3 empty 17 7 0 10 -262144
-258113 -1;
#X obj 66 101 bng 15 100 50 0 empty visi-ch6-4 empty 17 7 0 10 -262144
-258113 -1;
#X obj 85 101 bng 15 100 50 0 empty visi-ch6-5 empty 17 7 0 10 -262144
-258113 -1;
#X obj 100 101 bng 15 100 50 0 empty visi-ch6-6 empty 17 7 0 10 -262144
-258113 -1;
#X obj 115 101 bng 15 100 50 0 empty visi-ch6-7 empty 17 7 0 10 -262144
-258113 -1;
#X obj 130 101 bng 15 100 50 0 empty visi-ch6-8 empty 17 7 0 10 -262144
-258113 -1;
#X obj 149 101 bng 15 100 50 0 empty visi-ch6-9 empty 17 7 0 10 -262144
-258113 -1;
#X obj 164 101 bng 15 100 50 0 empty visi-ch6-10 empty 17 7 0 10 -262144
-258113 -1;
#X obj 179 101 bng 15 100 50 0 empty visi-ch6-11 empty 17 7 0 10 -262144
-258113 -1;
#X obj 194 101 bng 15 100 50 0 empty visi-ch6-12 empty 17 7 0 10 -262144
-258113 -1;
#X obj 213 101 bng 15 100 50 0 empty visi-ch6-13 empty 17 7 0 10 -262144
-258113 -1;
#X obj 228 101 bng 15 100 50 0 empty visi-ch6-14 empty 17 7 0 10 -262144
-258113 -1;
#X obj 243 101 bng 15 100 50 0 empty visi-ch6-15 empty 17 7 0 10 -262144
-258113 -1;
#X obj 258 101 bng 15 100 50 0 empty visi-ch6-16 empty 17 7 0 10 -262144
-258113 -1;
#X obj 21 116 bng 15 100 50 0 empty visi-ch7-1 empty 17 7 0 10 -262144
-258113 -1;
#X obj 36 116 bng 15 100 50 0 empty visi-ch7-2 empty 17 7 0 10 -262144
-258113 -1;
#X obj 51 116 bng 15 100 50 0 empty visi-ch7-3 empty 17 7 0 10 -262144
-258113 -1;
#X obj 66 116 bng 15 100 50 0 empty visi-ch7-4 empty 17 7 0 10 -262144
-258113 -1;
#X obj 85 116 bng 15 100 50 0 empty visi-ch7-5 empty 17 7 0 10 -262144
-258113 -1;
#X obj 100 116 bng 15 100 50 0 empty visi-ch7-6 empty 17 7 0 10 -262144
-258113 -1;
#X obj 115 116 bng 15 100 50 0 empty visi-ch7-7 empty 17 7 0 10 -262144
-258113 -1;
#X obj 130 116 bng 15 100 50 0 empty visi-ch7-8 empty 17 7 0 10 -262144
-258113 -1;
#X obj 149 116 bng 15 100 50 0 empty visi-ch7-9 empty 17 7 0 10 -262144
-258113 -1;
#X obj 164 116 bng 15 100 50 0 empty visi-ch7-10 empty 17 7 0 10 -262144
-258113 -1;
#X obj 179 116 bng 15 100 50 0 empty visi-ch7-11 empty 17 7 0 10 -262144
-258113 -1;
#X obj 194 116 bng 15 100 50 0 empty visi-ch7-12 empty 17 7 0 10 -262144
-258113 -1;
#X obj 213 116 bng 15 100 50 0 empty visi-ch7-13 empty 17 7 0 10 -262144
-258113 -1;
#X obj 228 116 bng 15 100 50 0 empty visi-ch7-14 empty 17 7 0 10 -262144
-258113 -1;
#X obj 243 116 bng 15 100 50 0 empty visi-ch7-15 empty 17 7 0 10 -262144
-258113 -1;
#X obj 258 116 bng 15 100 50 0 empty visi-ch7-16 empty 17 7 0 10 -262144
-258113 -1;
#X obj 21 131 bng 15 100 50 0 empty visi-ch8-1 empty 17 7 0 10 -262144
-258113 -1;
#X obj 36 131 bng 15 100 50 0 empty visi-ch8-2 empty 17 7 0 10 -262144
-258113 -1;
#X obj 51 131 bng 15 100 50 0 empty visi-ch8-3 empty 17 7 0 10 -262144
-258113 -1;
#X obj 66 131 bng 15 100 50 0 empty visi-ch8-4 empty 17 7 0 10 -262144
-258113 -1;
#X obj 85 131 bng 15 100 50 0 empty visi-ch8-5 empty 17 7 0 10 -262144
-258113 -1;
#X obj 100 131 bng 15 100 50 0 empty visi-ch8-6 empty 17 7 0 10 -262144
-258113 -1;
#X obj 115 131 bng 15 100 50 0 empty visi-ch8-7 empty 17 7 0 10 -262144
-258113 -1;
#X obj 130 131 bng 15 100 50 0 empty visi-ch8-8 empty 17 7 0 10 -262144
-258113 -1;
#X obj 149 131 bng 15 100 50 0 empty visi-ch8-9 empty 17 7 0 10 -262144
-258113 -1;
#X obj 164 131 bng 15 100 50 0 empty visi-ch8-10 empty 17 7 0 10 -262144
-258113 -1;
#X obj 179 131 bng 15 100 50 0 empty visi-ch8-11 empty 17 7 0 10 -262144
-258113 -1;
#X obj 194 131 bng 15 100 50 0 empty visi-ch8-12 empty 17 7 0 10 -262144
-258113 -1;
#X obj 213 131 bng 15 100 50 0 empty visi-ch8-13 empty 17 7 0 10 -262144
-258113 -1;
#X obj 228 131 bng 15 100 50 0 empty visi-ch8-14 empty 17 7 0 10 -262144
-258113 -1;
#X obj 243 131 bng 15 100 50 0 empty visi-ch8-15 empty 17 7 0 10 -262144
-258113 -1;
#X obj 258 131 bng 15 100 50 0 empty visi-ch8-16 empty 17 7 0 10 -262144
-258113 -1;
#X obj 21 149 bng 15 100 50 0 empty visi-ch9-1 empty 17 7 0 10 -262144
-258113 -1;
#X obj 36 149 bng 15 100 50 0 empty visi-ch9-2 empty 17 7 0 10 -262144
-258113 -1;
#X obj 51 149 bng 15 100 50 0 empty visi-ch9-3 empty 17 7 0 10 -262144
-258113 -1;
#X obj 66 149 bng 15 100 50 0 empty visi-ch9-4 empty 17 7 0 10 -262144
-258113 -1;
#X obj 85 149 bng 15 100 50 0 empty visi-ch9-5 empty 17 7 0 10 -262144
-258113 -1;
#X obj 100 149 bng 15 100 50 0 empty visi-ch9-6 empty 17 7 0 10 -262144
-258113 -1;
#X obj 115 149 bng 15 100 50 0 empty visi-ch9-7 empty 17 7 0 10 -262144
-258113 -1;
#X obj 130 149 bng 15 100 50 0 empty visi-ch9-8 empty 17 7 0 10 -262144
-258113 -1;
#X obj 149 149 bng 15 100 50 0 empty visi-ch9-9 empty 17 7 0 10 -262144
-258113 -1;
#X obj 164 149 bng 15 100 50 0 empty visi-ch9-10 empty 17 7 0 10 -262144
-258113 -1;
#X obj 179 149 bng 15 100 50 0 empty visi-ch9-11 empty 17 7 0 10 -262144
-258113 -1;
#X obj 194 149 bng 15 100 50 0 empty visi-ch9-12 empty 17 7 0 10 -262144
-258113 -1;
#X obj 213 149 bng 15 100 50 0 empty visi-ch9-13 empty 17 7 0 10 -262144
-258113 -1;
#X obj 228 149 bng 15 100 50 0 empty visi-ch9-14 empty 17 7 0 10 -262144
-258113 -1;
#X obj 243 149 bng 15 100 50 0 empty visi-ch9-15 empty 17 7 0 10 -262144
-258113 -1;
#X obj 258 149 bng 15 100 50 0 empty visi-ch9-16 empty 17 7 0 10 -262144
-258113 -1;
#X obj 21 164 bng 15 100 50 0 empty visi-ch10-1 empty 17 7 0 10 -262144
-258113 -1;
#X obj 36 164 bng 15 100 50 0 empty visi-ch10-2 empty 17 7 0 10 -262144
-258113 -1;
#X obj 51 164 bng 15 100 50 0 empty visi-ch10-3 empty 17 7 0 10 -262144
-258113 -1;
#X obj 66 164 bng 15 100 50 0 empty visi-ch10-4 empty 17 7 0 10 -262144
-258113 -1;
#X obj 85 164 bng 15 100 50 0 empty visi-ch10-5 empty 17 7 0 10 -262144
-258113 -1;
#X obj 100 164 bng 15 100 50 0 empty visi-ch10-6 empty 17 7 0 10 -262144
-258113 -1;
#X obj 115 164 bng 15 100 50 0 empty visi-ch10-7 empty 17 7 0 10 -262144
-258113 -1;
#X obj 130 164 bng 15 100 50 0 empty visi-ch10-8 empty 17 7 0 10 -262144
-258113 -1;
#X obj 149 164 bng 15 100 50 0 empty visi-ch10-9 empty 17 7 0 10 -262144
-258113 -1;
#X obj 164 164 bng 15 100 50 0 empty visi-ch10-10 empty 17 7 0 10 -262144
-258113 -1;
#X obj 179 164 bng 15 100 50 0 empty visi-ch10-11 empty 17 7 0 10 -262144
-258113 -1;
#X obj 194 164 bng 15 100 50 0 empty visi-ch10-12 empty 17 7 0 10 -262144
-258113 -1;
#X obj 213 164 bng 15 100 50 0 empty visi-ch10-13 empty 17 7 0 10 -262144
-258113 -1;
#X obj 228 164 bng 15 100 50 0 empty visi-ch10-14 empty 17 7 0 10 -262144
-258113 -1;
#X obj 243 164 bng 15 100 50 0 empty visi-ch10-15 empty 17 7 0 10 -262144
-258113 -1;
#X obj 258 164 bng 15 100 50 0 empty visi-ch10-16 empty 17 7 0 10 -262144
-258113 -1;
#X obj 21 179 bng 15 100 50 0 empty visi-ch11-1 empty 17 7 0 10 -262144
-258113 -1;
#X obj 36 179 bng 15 100 50 0 empty visi-ch11-2 empty 17 7 0 10 -262144
-258113 -1;
#X obj 51 179 bng 15 100 50 0 empty visi-ch11-3 empty 17 7 0 10 -262144
-258113 -1;
#X obj 66 179 bng 15 100 50 0 empty visi-ch11-4 empty 17 7 0 10 -262144
-258113 -1;
#X obj 85 179 bng 15 100 50 0 empty visi-ch11-5 empty 17 7 0 10 -262144
-258113 -1;
#X obj 100 179 bng 15 100 50 0 empty visi-ch11-6 empty 17 7 0 10 -262144
-258113 -1;
#X obj 115 179 bng 15 100 50 0 empty visi-ch11-7 empty 17 7 0 10 -262144
-258113 -1;
#X obj 130 179 bng 15 100 50 0 empty visi-ch11-8 empty 17 7 0 10 -262144
-258113 -1;
#X obj 149 179 bng 15 100 50 0 empty visi-ch11-9 empty 17 7 0 10 -262144
-258113 -1;
#X obj 164 179 bng 15 100 50 0 empty visi-ch11-10 empty 17 7 0 10 -262144
-258113 -1;
#X obj 179 179 bng 15 100 50 0 empty visi-ch11-11 empty 17 7 0 10 -262144
-258113 -1;
#X obj 194 179 bng 15 100 50 0 empty visi-ch11-12 empty 17 7 0 10 -262144
-258113 -1;
#X obj 213 179 bng 15 100 50 0 empty visi-ch11-13 empty 17 7 0 10 -262144
-258113 -1;
#X obj 228 179 bng 15 100 50 0 empty visi-ch11-14 empty 17 7 0 10 -262144
-258113 -1;
#X obj 243 179 bng 15 100 50 0 empty visi-ch11-15 empty 17 7 0 10 -262144
-258113 -1;
#X obj 258 179 bng 15 100 50 0 empty visi-ch11-16 empty 17 7 0 10 -262144
-258113 -1;
#X obj 21 194 bng 15 100 50 0 empty visi-ch12-1 empty 17 7 0 10 -262144
-258113 -1;
#X obj 36 194 bng 15 100 50 0 empty visi-ch12-2 empty 17 7 0 10 -262144
-258113 -1;
#X obj 51 194 bng 15 100 50 0 empty visi-ch12-3 empty 17 7 0 10 -262144
-258113 -1;
#X obj 66 194 bng 15 100 50 0 empty visi-ch12-4 empty 17 7 0 10 -262144
-258113 -1;
#X obj 85 194 bng 15 100 50 0 empty visi-ch12-5 empty 17 7 0 10 -262144
-258113 -1;
#X obj 100 194 bng 15 100 50 0 empty visi-ch12-6 empty 17 7 0 10 -262144
-258113 -1;
#X obj 115 194 bng 15 100 50 0 empty visi-ch12-7 empty 17 7 0 10 -262144
-258113 -1;
#X obj 130 194 bng 15 100 50 0 empty visi-ch12-8 empty 17 7 0 10 -262144
-258113 -1;
#X obj 149 194 bng 15 100 50 0 empty visi-ch12-9 empty 17 7 0 10 -262144
-258113 -1;
#X obj 164 194 bng 15 100 50 0 empty visi-ch12-10 empty 17 7 0 10 -262144
-258113 -1;
#X obj 179 194 bng 15 100 50 0 empty visi-ch12-11 empty 17 7 0 10 -262144
-258113 -1;
#X obj 194 194 bng 15 100 50 0 empty visi-ch12-12 empty 17 7 0 10 -262144
-258113 -1;
#X obj 213 194 bng 15 100 50 0 empty visi-ch12-13 empty 17 7 0 10 -262144
-258113 -1;
#X obj 228 194 bng 15 100 50 0 empty visi-ch12-14 empty 17 7 0 10 -262144
-258113 -1;
#X obj 243 194 bng 15 100 50 0 empty visi-ch12-15 empty 17 7 0 10 -262144
-258113 -1;
#X obj 258 194 bng 15 100 50 0 empty visi-ch12-16 empty 17 7 0 10 -262144
-258113 -1;
#X obj 21 212 bng 15 100 50 0 empty visi-ch13-1 empty 17 7 0 10 -262144
-258113 -1;
#X obj 36 212 bng 15 100 50 0 empty visi-ch13-2 empty 17 7 0 10 -262144
-258113 -1;
#X obj 51 212 bng 15 100 50 0 empty visi-ch13-3 empty 17 7 0 10 -262144
-258113 -1;
#X obj 66 212 bng 15 100 50 0 empty visi-ch13-4 empty 17 7 0 10 -262144
-258113 -1;
#X obj 85 212 bng 15 100 50 0 empty visi-ch13-5 empty 17 7 0 10 -262144
-258113 -1;
#X obj 100 212 bng 15 100 50 0 empty visi-ch13-6 empty 17 7 0 10 -262144
-258113 -1;
#X obj 115 212 bng 15 100 50 0 empty visi-ch13-7 empty 17 7 0 10 -262144
-258113 -1;
#X obj 130 212 bng 15 100 50 0 empty visi-ch13-8 empty 17 7 0 10 -262144
-258113 -1;
#X obj 149 212 bng 15 100 50 0 empty visi-ch13-9 empty 17 7 0 10 -262144
-258113 -1;
#X obj 164 212 bng 15 100 50 0 empty visi-ch13-10 empty 17 7 0 10 -262144
-258113 -1;
#X obj 179 212 bng 15 100 50 0 empty visi-ch13-11 empty 17 7 0 10 -262144
-258113 -1;
#X obj 194 212 bng 15 100 50 0 empty visi-ch13-12 empty 17 7 0 10 -262144
-258113 -1;
#X obj 213 212 bng 15 100 50 0 empty visi-ch13-13 empty 17 7 0 10 -262144
-258113 -1;
#X obj 228 212 bng 15 100 50 0 empty visi-ch13-14 empty 17 7 0 10 -262144
-258113 -1;
#X obj 243 212 bng 15 100 50 0 empty visi-ch13-15 empty 17 7 0 10 -262144
-258113 -1;
#X obj 258 212 bng 15 100 50 0 empty visi-ch13-16 empty 17 7 0 10 -262144
-258113 -1;
#X obj 21 227 bng 15 100 50 0 empty visi-ch14-1 empty 17 7 0 10 -262144
-258113 -1;
#X obj 36 227 bng 15 100 50 0 empty visi-ch14-2 empty 17 7 0 10 -262144
-258113 -1;
#X obj 51 227 bng 15 100 50 0 empty visi-ch14-3 empty 17 7 0 10 -262144
-258113 -1;
#X obj 66 227 bng 15 100 50 0 empty visi-ch14-4 empty 17 7 0 10 -262144
-258113 -1;
#X obj 85 227 bng 15 100 50 0 empty visi-ch14-5 empty 17 7 0 10 -262144
-258113 -1;
#X obj 100 227 bng 15 100 50 0 empty visi-ch14-6 empty 17 7 0 10 -262144
-258113 -1;
#X obj 115 227 bng 15 100 50 0 empty visi-ch14-7 empty 17 7 0 10 -262144
-258113 -1;
#X obj 130 227 bng 15 100 50 0 empty visi-ch14-8 empty 17 7 0 10 -262144
-258113 -1;
#X obj 149 227 bng 15 100 50 0 empty visi-ch14-9 empty 17 7 0 10 -262144
-258113 -1;
#X obj 164 227 bng 15 100 50 0 empty visi-ch14-10 empty 17 7 0 10 -262144
-258113 -1;
#X obj 179 227 bng 15 100 50 0 empty visi-ch14-11 empty 17 7 0 10 -262144
-258113 -1;
#X obj 194 227 bng 15 100 50 0 empty visi-ch14-12 empty 17 7 0 10 -262144
-258113 -1;
#X obj 213 227 bng 15 100 50 0 empty visi-ch14-13 empty 17 7 0 10 -262144
-258113 -1;
#X obj 228 227 bng 15 100 50 0 empty visi-ch14-14 empty 17 7 0 10 -262144
-258113 -1;
#X obj 243 227 bng 15 100 50 0 empty visi-ch14-15 empty 17 7 0 10 -262144
-258113 -1;
#X obj 258 227 bng 15 100 50 0 empty visi-ch14-16 empty 17 7 0 10 -262144
-258113 -1;
#X obj 21 242 bng 15 100 50 0 empty visi-ch15-1 empty 17 7 0 10 -262144
-258113 -1;
#X obj 36 242 bng 15 100 50 0 empty visi-ch15-2 empty 17 7 0 10 -262144
-258113 -1;
#X obj 51 242 bng 15 100 50 0 empty visi-ch15-3 empty 17 7 0 10 -262144
-258113 -1;
#X obj 66 242 bng 15 100 50 0 empty visi-ch15-4 empty 17 7 0 10 -262144
-258113 -1;
#X obj 85 242 bng 15 100 50 0 empty visi-ch15-5 empty 17 7 0 10 -262144
-258113 -1;
#X obj 100 242 bng 15 100 50 0 empty visi-ch15-6 empty 17 7 0 10 -262144
-258113 -1;
#X obj 115 242 bng 15 100 50 0 empty visi-ch15-7 empty 17 7 0 10 -262144
-258113 -1;
#X obj 130 242 bng 15 100 50 0 empty visi-ch15-8 empty 17 7 0 10 -262144
-258113 -1;
#X obj 149 242 bng 15 100 50 0 empty visi-ch15-9 empty 17 7 0 10 -262144
-258113 -1;
#X obj 164 242 bng 15 100 50 0 empty visi-ch15-10 empty 17 7 0 10 -262144
-258113 -1;
#X obj 179 242 bng 15 100 50 0 empty visi-ch15-11 empty 17 7 0 10 -262144
-258113 -1;
#X obj 194 242 bng 15 100 50 0 empty visi-ch15-12 empty 17 7 0 10 -262144
-258113 -1;
#X obj 213 242 bng 15 100 50 0 empty visi-ch15-13 empty 17 7 0 10 -262144
-258113 -1;
#X obj 228 242 bng 15 100 50 0 empty visi-ch15-14 empty 17 7 0 10 -262144
-258113 -1;
#X obj 243 242 bng 15 100 50 0 empty visi-ch15-15 empty 17 7 0 10 -262144
-258113 -1;
#X obj 258 242 bng 15 100 50 0 empty visi-ch15-16 empty 17 7 0 10 -262144
-258113 -1;
#X obj 21 257 bng 15 100 50 0 empty visi-ch16-1 empty 17 7 0 10 -262144
-258113 -1;
#X obj 36 257 bng 15 100 50 0 empty visi-ch16-2 empty 17 7 0 10 -262144
-258113 -1;
#X obj 51 257 bng 15 100 50 0 empty visi-ch16-3 empty 17 7 0 10 -262144
-258113 -1;
#X obj 66 257 bng 15 100 50 0 empty visi-ch16-4 empty 17 7 0 10 -262144
-258113 -1;
#X obj 85 257 bng 15 100 50 0 empty visi-ch16-5 empty 17 7 0 10 -262144
-258113 -1;
#X obj 100 257 bng 15 100 50 0 empty visi-ch16-6 empty 17 7 0 10 -262144
-258113 -1;
#X obj 115 257 bng 15 100 50 0 empty visi-ch16-7 empty 17 7 0 10 -262144
-258113 -1;
#X obj 130 257 bng 15 100 50 0 empty visi-ch16-8 empty 17 7 0 10 -262144
-258113 -1;
#X obj 149 257 bng 15 100 50 0 empty visi-ch16-9 empty 17 7 0 10 -262144
-258113 -1;
#X obj 164 257 bng 15 100 50 0 empty visi-ch16-10 empty 17 7 0 10 -262144
-258113 -1;
#X obj 179 257 bng 15 100 50 0 empty visi-ch16-11 empty 17 7 0 10 -262144
-258113 -1;
#X obj 194 257 bng 15 100 50 0 empty visi-ch16-12 empty 17 7 0 10 -262144
-258113 -1;
#X obj 213 257 bng 15 100 50 0 empty visi-ch16-13 empty 17 7 0 10 -262144
-258113 -1;
#X obj 228 257 bng 15 100 50 0 empty visi-ch16-14 empty 17 7 0 10 -262144
-258113 -1;
#X obj 243 257 bng 15 100 50 0 empty visi-ch16-15 empty 17 7 0 10 -262144
-258113 -1;
#X obj 258 257 bng 15 100 50 0 empty visi-ch16-16 empty 17 7 0 10 -262144
-258113 -1;
#X obj 21 278 bng 15 100 50 0 empty visi-beat-1 empty 17 7 0 10 -262144
-162280 -1;
#X obj 36 278 bng 15 100 50 0 empty visi-beat-2 empty 17 7 0 10 -262144
-162280 -1;
#X obj 51 278 bng 15 100 50 0 empty visi-beat-3 empty 17 7 0 10 -262144
-162280 -1;
#X obj 66 278 bng 15 100 50 0 empty visi-beat-4 empty 17 7 0 10 -262144
-162280 -1;
#X obj 85 278 bng 15 100 50 0 empty visi-beat-5 empty 17 7 0 10 -262144
-162280 -1;
#X obj 100 278 bng 15 100 50 0 empty visi-beat-6 empty 17 7 0 10 -262144
-162280 -1;
#X obj 115 278 bng 15 100 50 0 empty visi-beat-7 empty 17 7 0 10 -262144
-162280 -1;
#X obj 130 278 bng 15 100 50 0 empty visi-beat-8 empty 17 7 0 10 -262144
-162280 -1;
#X obj 149 278 bng 15 100 50 0 empty visi-beat-9 empty 17 7 0 10 -262144
-162280 -1;
#X obj 164 278 bng 15 100 50 0 empty visi-beat-10 empty 17 7 0 10 -262144
-162280 -1;
#X obj 179 278 bng 15 100 50 0 empty visi-beat-11 empty 17 7 0 10 -262144
-162280 -1;
#X obj 194 278 bng 15 100 50 0 empty visi-beat-12 empty 17 7 0 10 -262144
-162280 -1;
#X obj 213 278 bng 15 100 50 0 empty visi-beat-13 empty 17 7 0 10 -262144
-162280 -1;
#X obj 228 278 bng 15 100 50 0 empty visi-beat-14 empty 17 7 0 10 -262144
-162280 -1;
#X obj 243 278 bng 15 100 50 0 empty visi-beat-15 empty 17 7 0 10 -262144
-162280 -1;
#X obj 258 278 bng 15 100 50 0 empty visi-beat-16 empty 17 7 0 10 -262144
-162280 -1;
#N canvas 46 25 978 641 map-notes-to-visi 0;
#X obj 49 35 r seq-step-num-trig;
#X obj 7 177 r 1-note;
#X obj 7 200 sel 0;
#X obj 34 253 s;
#X msg 49 229 symbol visi-ch1-\$1;
#X obj 49 59 + 1;
#X obj 70 127 s;
#X msg 64 83 symbol visi-beat-\$1;
#X obj 64 105 t b s;
#X obj 175 200 sel 0;
#X obj 202 253 s;
#X obj 175 177 r 2-note;
#X msg 217 229 symbol visi-ch2-\$1;
#X obj 339 200 sel 0;
#X obj 366 253 s;
#X obj 339 177 r 3-note;
#X msg 381 229 symbol visi-ch3-\$1;
#X obj 500 200 sel 0;
#X obj 527 253 s;
#X obj 500 177 r 4-note;
#X msg 542 229 symbol visi-ch4-\$1;
#X obj 7 310 sel 0;
#X obj 34 363 s;
#X obj 175 310 sel 0;
#X obj 202 363 s;
#X obj 339 310 sel 0;
#X obj 366 363 s;
#X obj 500 310 sel 0;
#X obj 527 363 s;
#X obj 7 420 sel 0;
#X obj 34 473 s;
#X obj 175 420 sel 0;
#X obj 202 473 s;
#X obj 339 420 sel 0;
#X obj 366 473 s;
#X obj 500 420 sel 0;
#X obj 527 473 s;
#X obj 7 530 sel 0;
#X obj 34 583 s;
#X obj 175 530 sel 0;
#X obj 202 583 s;
#X obj 339 530 sel 0;
#X obj 366 583 s;
#X obj 500 530 sel 0;
#X obj 527 583 s;
#X obj 7 287 r 5-note;
#X msg 49 339 symbol visi-ch5-\$1;
#X obj 175 287 r 6-note;
#X msg 217 339 symbol visi-ch6-\$1;
#X obj 339 287 r 7-note;
#X msg 381 339 symbol visi-ch7-\$1;
#X obj 500 287 r 8-note;
#X msg 542 339 symbol visi-ch8-\$1;
#X obj 7 397 r 9-note;
#X msg 49 449 symbol visi-ch9-\$1;
#X obj 175 397 r 10-note;
#X msg 217 449 symbol visi-ch10-\$1;
#X obj 339 397 r 11-note;
#X msg 381 449 symbol visi-ch11-\$1;
#X obj 500 397 r 12-note;
#X msg 542 449 symbol visi-ch12-\$1;
#X obj 7 507 r 13-note;
#X msg 49 559 symbol visi-ch13-\$1;
#X obj 175 507 r 14-note;
#X msg 217 559 symbol visi-ch14-\$1;
#X obj 339 507 r 15-note;
#X msg 381 559 symbol visi-ch15-\$1;
#X obj 500 507 r 16-note;
#X msg 542 559 symbol visi-ch16-\$1;
#X connect 0 0 5 0;
#X connect 1 0 2 0;
#X connect 2 1 3 0;
#X connect 4 0 3 1;
#X connect 5 0 4 0;
#X connect 5 0 7 0;
#X connect 5 0 12 0;
#X connect 5 0 16 0;
#X connect 5 0 20 0;
#X connect 5 0 46 0;
#X connect 5 0 48 0;
#X connect 5 0 50 0;
#X connect 5 0 52 0;
#X connect 5 0 54 0;
#X connect 5 0 56 0;
#X connect 5 0 58 0;
#X connect 5 0 60 0;
#X connect 5 0 62 0;
#X connect 5 0 64 0;
#X connect 5 0 66 0;
#X connect 5 0 68 0;
#X connect 7 0 8 0;
#X connect 8 0 6 0;
#X connect 8 1 6 1;
#X connect 9 1 10 0;
#X connect 11 0 9 0;
#X connect 12 0 10 1;
#X connect 13 1 14 0;
#X connect 15 0 13 0;
#X connect 16 0 14 1;
#X connect 17 1 18 0;
#X connect 19 0 17 0;
#X connect 20 0 18 1;
#X connect 21 1 22 0;
#X connect 23 1 24 0;
#X connect 25 1 26 0;
#X connect 27 1 28 0;
#X connect 29 1 30 0;
#X connect 31 1 32 0;
#X connect 33 1 34 0;
#X connect 35 1 36 0;
#X connect 37 1 38 0;
#X connect 39 1 40 0;
#X connect 41 1 42 0;
#X connect 43 1 44 0;
#X connect 45 0 21 0;
#X connect 46 0 22 1;
#X connect 47 0 23 0;
#X connect 48 0 24 1;
#X connect 49 0 25 0;
#X connect 50 0 26 1;
#X connect 51 0 27 0;
#X connect 52 0 28 1;
#X connect 53 0 29 0;
#X connect 54 0 30 1;
#X connect 55 0 31 0;
#X connect 56 0 32 1;
#X connect 57 0 33 0;
#X connect 58 0 34 1;
#X connect 59 0 35 0;
#X connect 60 0 36 1;
#X connect 61 0 37 0;
#X connect 62 0 38 1;
#X connect 63 0 39 0;
#X connect 64 0 40 1;
#X connect 65 0 41 0;
#X connect 66 0 42 1;
#X connect 67 0 43 0;
#X connect 68 0 44 1;
#X restore 20 433 pd map-notes-to-visi;
#X restore 488 84 pd seq-visi;
#X connect 2 0 3 0;
#X connect 18 0 1 0;
#X connect 18 1 0 0;
