#N canvas -28 56 873 618 10;
#X obj 514 71 netreceive 3000;
#X floatatom 601 97 0 0 0 0 - - -;
#X obj 514 97 s rawmessage;
#X obj 650 73 r rawmessage;
#X obj 650 97 print rawmessage;
#X obj 197 48 r rawmessage;
#X text 195 14 The global message router;
#X obj 197 112 route 1 2 3 4;
#X obj 197 216 seq16;
#X obj 197 246 tableseq;
#X obj 197 79 route seq16;
#N canvas 286 180 716 486 myoutput 0;
#X obj 46 108 hsl 42 23 0.01 1 1 0 \$0-v \$0-v volume 7 13 1 9 -245500
-13381 -1 3901 0;
#X obj 90 108 tgl 18 0 THIS_IS_HERE_TO_GET_RID_OF_THE_OUTLET \$0-dsp-toggle
dsp 2 9 1 9 -225271 -195568 -33289 1 1;
#N canvas 216 221 482 356 dsp 0;
#X obj 11 7 inlet;
#X obj 92 226 select 0 1;
#X msg 125 248 6;
#X obj 92 57 route dsp;
#X obj 92 36 receive pd;
#X obj 206 138 loadbang;
#X msg 11 220 dsp \$1;
#X obj 11 245 send pd;
#X msg 206 278 set \$1;
#X obj 206 174 value GLOBAL_PDDP_DSP;
#X msg 109 278 color \$1 20 12;
#X obj 180 309 send \$0-dsp-toggle;
#X obj 92 115 change;
#X msg 92 247 0;
#X connect 0 0 6 0;
#X connect 0 0 12 0;
#X connect 1 0 13 0;
#X connect 1 1 2 0;
#X connect 2 0 10 0;
#X connect 3 0 12 0;
#X connect 4 0 3 0;
#X connect 5 0 9 0;
#X connect 6 0 7 0;
#X connect 8 0 11 0;
#X connect 9 0 8 0;
#X connect 9 0 1 0;
#X connect 10 0 11 0;
#X connect 12 0 8 0;
#X connect 12 0 1 0;
#X connect 12 0 9 0;
#X connect 13 0 10 0;
#X restore 115 160 pd dsp logic;
#X obj 234 14 inlet~;
#X obj 119 285 line~;
#X obj 219 345 *~;
#X obj 239 375 dac~;
#X text 246 34 audio in;
#X obj 296 14 inlet~;
#X obj 281 344 *~;
#X obj 234 85 hip~ 3;
#X obj 296 85 hip~ 3;
#X obj 45 300 send pd;
#X msg 45 279 dsp 1;
#X obj 119 264 pack 0 50;
#X text 186 263 <-- make a ramp to avoid clicks or zipper noise;
#X msg 119 229 0;
#X obj 119 206 moses 0.011;
#X text 340 86 filter out DC;
#X obj 24 60 inlet;
#X connect 0 0 13 0;
#X connect 0 0 17 0;
#X connect 1 0 2 0;
#X connect 3 0 10 0;
#X connect 4 0 9 0;
#X connect 4 0 5 0;
#X connect 5 0 6 0;
#X connect 8 0 11 0;
#X connect 9 0 6 1;
#X connect 10 0 5 1;
#X connect 11 0 9 1;
#X connect 13 0 12 0;
#X connect 14 0 4 0;
#X connect 16 0 14 0;
#X connect 17 0 16 0;
#X connect 17 1 14 0;
#X connect 19 0 0 0;
#X connect 19 0 1 0;
#X connect 19 0 13 0;
#X connect 19 0 17 0;
#X restore 153 561 pd myoutput;
#X obj 101 482 loadbang;
#X msg 117 523 0.8;
#X obj 25 320 makenote 64 250;
#X obj 25 344 noteout 1;
#X text 24 293 MIDI;
#N canvas 763 48 460 590 littleBlimp 0;
#X obj 72 31 inlet;
#X obj 143 358 outlet~;
#X obj 143 212 mtof~;
#X obj 143 287 osc~;
#X obj 143 325 *~;
#X obj 275 304 line~;
#X obj 51 173 hsl 128 15 0 127 0 0 empty empty empty -2 -8 0 10 -262144
-1 -1 0 1;
#X msg 325 228 1;
#X obj 325 253 t b 1;
#X obj 143 246 +~;
#X obj 216 195 osc~;
#X obj 216 221 *~;
#X floatatom 252 195 5 0 0 0 - - -;
#X floatatom 216 170 5 0 0 0 - - -;
#X msg 215 146 12;
#X obj 239 111 loadbang;
#X msg 252 170 8;
#X msg 275 279 0 500;
#X text 344 159 native (sketch);
#X obj 72 126 t f b;
#X text 112 30 notein (number);
#X connect 0 0 19 0;
#X connect 2 0 9 0;
#X connect 3 0 4 0;
#X connect 4 0 1 0;
#X connect 5 0 4 1;
#X connect 6 0 2 0;
#X connect 7 0 8 0;
#X connect 8 0 17 0;
#X connect 8 1 5 0;
#X connect 9 0 3 0;
#X connect 10 0 11 0;
#X connect 11 0 9 1;
#X connect 12 0 11 1;
#X connect 13 0 10 0;
#X connect 14 0 13 0;
#X connect 15 0 14 0;
#X connect 15 0 16 0;
#X connect 16 0 12 0;
#X connect 17 0 5 0;
#X connect 19 0 6 0;
#X connect 19 1 7 0;
#X restore 197 289 pd littleBlimp;
#X obj 135 262 print 1;
#X connect 0 0 2 0;
#X connect 0 1 1 0;
#X connect 3 0 4 0;
#X connect 5 0 10 0;
#X connect 7 0 8 0;
#X connect 8 0 9 0;
#X connect 8 1 9 1;
#X connect 9 0 17 0;
#X connect 9 0 18 0;
#X connect 10 0 7 0;
#X connect 12 0 13 0;
#X connect 13 0 11 0;
#X connect 14 0 15 0;
#X connect 14 1 15 1;
#X connect 17 0 11 1;
#X connect 17 0 11 2;
