#N canvas 461 110 659 474 10;
#X obj 329 39 inlet;
#X obj -10 120 outlet;
#X obj 424 356 table \$0tab 16;
#X obj -10 76 tabread \$0tab;
#X obj -10 39 inlet;
#X obj 471 45 qlist;
#X obj 471 67 textfile;
#X obj 532 67 zl;
#X obj 328 356 tabwrite \$0tab;
#X obj 329 243 drip;
#X obj 374 299 cup;
#X msg 348 218 0;
#X obj 329 325 pack f f;
#X obj 329 270 t f b;
#X obj 388 217 f \$0;
#X msg 388 242 \; \$1tab const 0;
#X obj 329 181 t l b b;
#X text 513 198 Converting a list into an array.;
#X text 196 15 List to feed into the table;
#X text 38 120 outputs the table value;
#X text -11 15 (int) get tablevalue at number;
#X connect 0 0 16 0;
#X connect 3 0 1 0;
#X connect 4 0 3 0;
#X connect 9 0 13 0;
#X connect 10 0 12 1;
#X connect 11 0 10 0;
#X connect 12 0 8 0;
#X connect 13 0 12 0;
#X connect 13 1 10 0;
#X connect 14 0 15 0;
#X connect 16 0 9 0;
#X connect 16 1 11 0;
#X connect 16 2 14 0;
